<mxfile host="65bd71144e" pages="2">
    <diagram id="oIMQlDYKbwNuq5N-djfg" name="Icons and Colors and UI improvments">
        <mxGraphModel dx="2334" dy="965" grid="1" gridSize="10" guides="1" tooltips="1" connect="1" arrows="1" fold="1" page="1" pageScale="1" pageWidth="850" pageHeight="1100" math="0" shadow="0">
            <root>
                <mxCell id="0"/>
                <mxCell id="1" parent="0"/>
                <mxCell id="N8ELMqkDkQAh08lZ-lhY-1" value="" style="rounded=0;whiteSpace=wrap;html=1;fontSize=18;" vertex="1" parent="1">
                    <mxGeometry x="-850" width="1450" height="960" as="geometry"/>
                </mxCell>
                <mxCell id="N8ELMqkDkQAh08lZ-lhY-2" value="" style="rounded=0;whiteSpace=wrap;html=1;" vertex="1" parent="1">
                    <mxGeometry x="-643" y="90" width="220" height="360" as="geometry"/>
                </mxCell>
                <mxCell id="N8ELMqkDkQAh08lZ-lhY-3" value="Title" style="html=1;shadow=0;dashed=0;shape=mxgraph.bootstrap.rrect;rSize=5;fillColor=none;strokeColor=#999999;align=left;spacing=15;fontSize=14;fontColor=#6C767D;" vertex="1" parent="1">
                    <mxGeometry x="-608" y="115" width="150" height="30" as="geometry"/>
                </mxCell>
                <mxCell id="N8ELMqkDkQAh08lZ-lhY-4" value="Notes..." style="html=1;shadow=0;dashed=0;shape=mxgraph.bootstrap.rrect;rSize=5;fillColor=none;strokeColor=#999999;align=left;spacing=15;fontSize=14;fontColor=#6C767D;" vertex="1" parent="1">
                    <mxGeometry x="-613" y="368.63" width="150" height="65" as="geometry"/>
                </mxCell>
                <mxCell id="N8ELMqkDkQAh08lZ-lhY-5" value="Cost" style="html=1;shadow=0;dashed=0;shape=mxgraph.bootstrap.rrect;rSize=5;fillColor=none;strokeColor=#999999;align=left;spacing=15;fontSize=14;fontColor=#6C767D;" vertex="1" parent="1">
                    <mxGeometry x="-608" y="155" width="150" height="30" as="geometry"/>
                </mxCell>
                <mxCell id="N8ELMqkDkQAh08lZ-lhY-6" value="Auto paid" style="rounded=1;arcSize=10;html=1;fontSize=11;align=center;fontStyle=0;fontSize=11;sketch=0;hachureGap=4;pointerEvents=0;fontFamily=Helvetica;strokeColor=none;direction=south;" vertex="1" parent="1">
                    <mxGeometry x="-613" y="243.75" width="40" height="32.5" as="geometry"/>
                </mxCell>
                <mxCell id="N8ELMqkDkQAh08lZ-lhY-7" value="" style="fillColor=#36B37E;strokeColor=none;rounded=1;arcSize=50;sketch=0;hachureGap=4;pointerEvents=0;fontFamily=Architects Daughter;fontSource=https%3A%2F%2Ffonts.googleapis.com%2Fcss%3Ffamily%3DArchitects%2BDaughter;fontSize=20;" vertex="1" parent="1">
                    <mxGeometry x="-498" y="250" width="40" height="20" as="geometry"/>
                </mxCell>
                <mxCell id="N8ELMqkDkQAh08lZ-lhY-8" value="" style="shape=ellipse;strokeColor=none;fillColor=#ffffff;sketch=0;hachureGap=4;pointerEvents=0;fontFamily=Architects Daughter;fontSource=https%3A%2F%2Ffonts.googleapis.com%2Fcss%3Ffamily%3DArchitects%2BDaughter;fontSize=20;" vertex="1" parent="N8ELMqkDkQAh08lZ-lhY-7">
                    <mxGeometry x="1" y="0.5" width="16" height="16" relative="1" as="geometry">
                        <mxPoint x="-17" y="-8" as="offset"/>
                    </mxGeometry>
                </mxCell>
                <mxCell id="N8ELMqkDkQAh08lZ-lhY-9" value="" style="html=1;shadow=0;dashed=0;shape=mxgraph.atlassian.check;strokeColor=#ffffff;strokeWidth=2;sketch=1;hachureGap=4;pointerEvents=0;fontFamily=Architects Daughter;fontSource=https%3A%2F%2Ffonts.googleapis.com%2Fcss%3Ffamily%3DArchitects%2BDaughter;fontSize=20;" vertex="1" parent="N8ELMqkDkQAh08lZ-lhY-7">
                    <mxGeometry y="0.5" width="10" height="8" relative="1" as="geometry">
                        <mxPoint x="6" y="-5" as="offset"/>
                    </mxGeometry>
                </mxCell>
                <mxCell id="N8ELMqkDkQAh08lZ-lhY-10" value="" style="html=1;verticalLabelPosition=bottom;align=center;labelBackgroundColor=#ffffff;verticalAlign=top;strokeWidth=2;strokeColor=#0080F0;shadow=0;dashed=0;shape=mxgraph.ios7.icons.add;fontFamily=Helvetica;" vertex="1" parent="1">
                    <mxGeometry x="-453" y="95" width="20" height="20" as="geometry"/>
                </mxCell>
                <mxCell id="N8ELMqkDkQAh08lZ-lhY-11" value="" style="html=1;verticalLabelPosition=bottom;align=center;labelBackgroundColor=#ffffff;verticalAlign=top;strokeWidth=2;strokeColor=#0080F0;shadow=0;dashed=0;shape=mxgraph.ios7.icons.back;fontFamily=Helvetica;" vertex="1" parent="1">
                    <mxGeometry x="-633" y="100" width="39" height="10" as="geometry"/>
                </mxCell>
                <mxCell id="N8ELMqkDkQAh08lZ-lhY-12" value="create/edit sub" style="text;html=1;strokeColor=none;fillColor=none;align=center;verticalAlign=middle;whiteSpace=wrap;rounded=0;fontFamily=Helvetica;fontStyle=1" vertex="1" parent="1">
                    <mxGeometry x="-462.74" y="50" width="90" height="30" as="geometry"/>
                </mxCell>
                <mxCell id="N8ELMqkDkQAh08lZ-lhY-13" value="latest payment" style="text;html=1;strokeColor=none;fillColor=none;align=center;verticalAlign=middle;whiteSpace=wrap;rounded=0;fontFamily=Helvetica;" vertex="1" parent="1">
                    <mxGeometry x="-639.5" y="218.75" width="110.5" height="25" as="geometry"/>
                </mxCell>
                <mxCell id="N8ELMqkDkQAh08lZ-lhY-14" value="03/12/2023" style="html=1;shadow=0;dashed=0;shape=mxgraph.bootstrap.rrect;rSize=5;fillColor=none;strokeColor=#999999;align=left;spacing=15;fontSize=14;fontColor=#6C767D;" vertex="1" parent="1">
                    <mxGeometry x="-533" y="221.25" width="92.25" height="20" as="geometry"/>
                </mxCell>
                <mxCell id="N8ELMqkDkQAh08lZ-lhY-15" value="Paid Every" style="text;html=1;align=center;verticalAlign=middle;resizable=0;points=[];autosize=1;strokeColor=none;fillColor=none;" vertex="1" parent="1">
                    <mxGeometry x="-643" y="188.56" width="80" height="30" as="geometry"/>
                </mxCell>
                <mxCell id="N8ELMqkDkQAh08lZ-lhY-16" value="1" style="html=1;shadow=0;dashed=0;shape=mxgraph.bootstrap.rrect;rSize=5;fillColor=none;strokeColor=#999999;align=left;spacing=15;fontSize=14;fontColor=#6C767D;" vertex="1" parent="1">
                    <mxGeometry x="-563" y="195" width="40" height="18.75" as="geometry"/>
                </mxCell>
                <mxCell id="N8ELMqkDkQAh08lZ-lhY-17" value="&lt;font style=&quot;font-size: 14px;&quot;&gt;Month&lt;/font&gt;" style="html=1;shadow=0;dashed=0;shape=mxgraph.bootstrap.rrect;rSize=5;strokeColor=#505050;strokeWidth=1;fillColor=#ffffff;fontColor=#777777;whiteSpace=wrap;align=left;verticalAlign=middle;fontStyle=0;fontSize=18;spacing=20;" vertex="1" parent="1">
                    <mxGeometry x="-518" y="193.37" width="85" height="20.38" as="geometry"/>
                </mxCell>
                <mxCell id="N8ELMqkDkQAh08lZ-lhY-18" value="" style="shape=triangle;direction=south;fillColor=#495057;strokeColor=none;perimeter=none;" vertex="1" parent="N8ELMqkDkQAh08lZ-lhY-17">
                    <mxGeometry x="1" y="0.5" width="10" height="5" relative="1" as="geometry">
                        <mxPoint x="-17" y="-2.5" as="offset"/>
                    </mxGeometry>
                </mxCell>
                <mxCell id="N8ELMqkDkQAh08lZ-lhY-79" value="" style="rounded=0;whiteSpace=wrap;html=1;" vertex="1" parent="1">
                    <mxGeometry x="141.01" y="47" width="220" height="353" as="geometry"/>
                </mxCell>
                <mxCell id="N8ELMqkDkQAh08lZ-lhY-80" value="" style="html=1;verticalLabelPosition=bottom;align=center;labelBackgroundColor=#ffffff;verticalAlign=top;strokeWidth=2;strokeColor=#0080F0;shadow=0;dashed=0;shape=mxgraph.ios7.icons.back;fontFamily=Helvetica;" vertex="1" parent="1">
                    <mxGeometry x="153.25999999999976" y="60.629999999999995" width="39" height="15" as="geometry"/>
                </mxCell>
                <mxCell id="N8ELMqkDkQAh08lZ-lhY-81" value="&lt;span style=&quot;color: rgb(0, 0, 0); font-size: 12px;&quot;&gt;Mark paid&lt;/span&gt;" style="rounded=1;html=1;shadow=0;dashed=0;whiteSpace=wrap;fontSize=10;align=center;fontFamily=Helvetica;fillColor=#dae8fc;strokeColor=#6c8ebf;" vertex="1" parent="1">
                    <mxGeometry x="187.12999999999965" y="220.25" width="105.5" height="16.88" as="geometry"/>
                </mxCell>
                <mxCell id="N8ELMqkDkQAh08lZ-lhY-82" value="" style="sketch=0;html=1;aspect=fixed;shadow=0;align=center;verticalAlign=top;shape=mxgraph.gcp2.check;fontFamily=Helvetica;" vertex="1" parent="1">
                    <mxGeometry x="194.24999999999966" y="222.13" width="18.75" height="15" as="geometry"/>
                </mxCell>
                <mxCell id="N8ELMqkDkQAh08lZ-lhY-83" value="" style="html=1;verticalLabelPosition=bottom;align=center;labelBackgroundColor=#ffffff;verticalAlign=top;strokeWidth=2;strokeColor=#0080F0;shadow=0;dashed=0;shape=mxgraph.ios7.icons.compose;fontFamily=Helvetica;" vertex="1" parent="1">
                    <mxGeometry x="306.9999999999998" y="50.360000000000056" width="29.099999999999998" height="29.099999999999998" as="geometry"/>
                </mxCell>
                <mxCell id="N8ELMqkDkQAh08lZ-lhY-84" value="&lt;br&gt;&lt;font style=&quot;&quot;&gt;&lt;br&gt;&lt;br&gt;&amp;nbsp; &amp;nbsp; &amp;nbsp; &amp;nbsp; &amp;nbsp; &amp;nbsp; &amp;nbsp; &amp;nbsp;Jul 25, 2023&lt;br&gt;&amp;nbsp; &amp;nbsp; &amp;nbsp; &amp;nbsp; &amp;nbsp; &amp;nbsp; &amp;nbsp; &amp;nbsp; 15 days&lt;/font&gt;" style="text;html=1;strokeColor=none;fillColor=none;align=center;verticalAlign=middle;whiteSpace=wrap;rounded=0;fontSize=14;" vertex="1" parent="1">
                    <mxGeometry x="129.00999999999976" y="155.75" width="155.76" height="20" as="geometry"/>
                </mxCell>
                <mxCell id="N8ELMqkDkQAh08lZ-lhY-85" value="&amp;nbsp; Annually&lt;br&gt;&lt;font style=&quot;font-size: 14px;&quot;&gt;&amp;nbsp; &amp;nbsp; &amp;nbsp; &amp;nbsp; &amp;nbsp; &amp;nbsp; &amp;nbsp; &amp;nbsp; &amp;nbsp; &amp;nbsp; &amp;nbsp; &amp;nbsp;$360&lt;/font&gt;" style="text;html=1;strokeColor=none;fillColor=none;align=center;verticalAlign=middle;whiteSpace=wrap;rounded=0;fontSize=12;" vertex="1" parent="1">
                    <mxGeometry x="118.50999999999999" y="296.63" width="142" height="30" as="geometry"/>
                </mxCell>
                <mxCell id="N8ELMqkDkQAh08lZ-lhY-87" value="" style="verticalLabelPosition=bottom;shadow=0;dashed=0;align=center;html=1;verticalAlign=top;strokeWidth=1;shape=mxgraph.mockup.markup.line;strokeColor=#999999;fontSize=12;" vertex="1" parent="1">
                    <mxGeometry x="161.88999999999965" y="240" width="160" height="20" as="geometry"/>
                </mxCell>
                <mxCell id="N8ELMqkDkQAh08lZ-lhY-88" value="" style="verticalLabelPosition=bottom;shadow=0;dashed=0;align=center;html=1;verticalAlign=top;strokeWidth=1;shape=mxgraph.mockup.markup.line;strokeColor=#999999;fontSize=12;" vertex="1" parent="1">
                    <mxGeometry x="166.24999999999977" y="282.32" width="160" height="20" as="geometry"/>
                </mxCell>
                <mxCell id="N8ELMqkDkQAh08lZ-lhY-89" value="" style="verticalLabelPosition=bottom;shadow=0;dashed=0;align=center;html=1;verticalAlign=top;strokeWidth=1;shape=mxgraph.mockup.markup.line;strokeColor=#999999;fontSize=12;" vertex="1" parent="1">
                    <mxGeometry x="164.01" y="316.63" width="160" height="20" as="geometry"/>
                </mxCell>
                <mxCell id="N8ELMqkDkQAh08lZ-lhY-90" value="Note....&lt;br&gt;sdsfads" style="rounded=1;arcSize=10;html=1;fontSize=11;align=center;fontStyle=0;fontSize=11;sketch=0;hachureGap=4;pointerEvents=0;fontFamily=Helvetica;strokeColor=none;direction=south;" vertex="1" parent="1">
                    <mxGeometry x="189.89" y="333.6300000000001" width="104" height="35" as="geometry"/>
                </mxCell>
                <mxCell id="N8ELMqkDkQAh08lZ-lhY-91" value="Testing 123" style="text;html=1;strokeColor=none;fillColor=none;align=center;verticalAlign=middle;whiteSpace=wrap;rounded=0;fontSize=18;" vertex="1" parent="1">
                    <mxGeometry x="187.12999999999988" y="68.06000000000007" width="113.75" height="38.12" as="geometry"/>
                </mxCell>
                <mxCell id="N8ELMqkDkQAh08lZ-lhY-94" value="" style="verticalLabelPosition=bottom;shadow=0;dashed=0;align=center;html=1;verticalAlign=top;strokeWidth=1;shape=mxgraph.mockup.markup.line;strokeColor=#006EAF;fontSize=12;fillColor=#1ba1e2;fontColor=#ffffff;" vertex="1" parent="1">
                    <mxGeometry x="170.6300000000001" y="131.63" width="160" height="20" as="geometry"/>
                </mxCell>
                <mxCell id="N8ELMqkDkQAh08lZ-lhY-95" value="" style="verticalLabelPosition=bottom;shadow=0;dashed=0;align=center;html=1;verticalAlign=top;strokeWidth=1;shape=mxgraph.mockup.markup.line;strokeColor=#006EAF;fontSize=12;fillColor=#1ba1e2;fontColor=#ffffff;" vertex="1" parent="1">
                    <mxGeometry x="164.00999999999976" y="95.63" width="160" height="20" as="geometry"/>
                </mxCell>
                <mxCell id="N8ELMqkDkQAh08lZ-lhY-96" value="Delete" style="rounded=1;html=1;shadow=0;dashed=0;whiteSpace=wrap;fontSize=10;fillColor=#f8cecc;align=center;strokeColor=#b85450;" vertex="1" parent="1">
                    <mxGeometry x="187.13" y="370" width="105.5" height="16.88" as="geometry"/>
                </mxCell>
                <mxCell id="N8ELMqkDkQAh08lZ-lhY-97" value="" style="html=1;verticalLabelPosition=bottom;align=center;labelBackgroundColor=#ffffff;verticalAlign=top;strokeWidth=2;strokeColor=#0080F0;shadow=0;dashed=0;shape=mxgraph.ios7.icons.trashcan;" vertex="1" parent="1">
                    <mxGeometry x="200.62999999999977" y="373.44" width="14" height="10" as="geometry"/>
                </mxCell>
                <mxCell id="N8ELMqkDkQAh08lZ-lhY-98" value="&lt;span style=&quot;font-size: 12px;&quot;&gt;Billing&lt;/span&gt;&lt;br&gt;&amp;nbsp; &amp;nbsp; &amp;nbsp; &amp;nbsp; &amp;nbsp; &amp;nbsp; &amp;nbsp; &amp;nbsp; &amp;nbsp;every week" style="text;html=1;align=center;verticalAlign=middle;resizable=0;points=[];autosize=1;strokeColor=none;fillColor=none;fontSize=14;" vertex="1" parent="1">
                    <mxGeometry x="100.50999999999976" y="95.63" width="160" height="50" as="geometry"/>
                </mxCell>
                <mxCell id="N8ELMqkDkQAh08lZ-lhY-100" value="&lt;span style=&quot;font-size: 12px;&quot;&gt;Latest payment&lt;br&gt;&lt;/span&gt;&lt;span style=&quot;font-size: 14px;&quot;&gt;&amp;nbsp; &amp;nbsp; &amp;nbsp; &amp;nbsp; &amp;nbsp; &amp;nbsp; &amp;nbsp; &amp;nbsp; &amp;nbsp; jul 10, 2023&amp;nbsp;&lt;/span&gt;&lt;span style=&quot;font-size: 12px;&quot;&gt;&lt;br&gt;&lt;/span&gt;" style="text;html=1;align=center;verticalAlign=middle;resizable=0;points=[];autosize=1;strokeColor=none;fillColor=none;fontSize=12;" vertex="1" parent="1">
                    <mxGeometry x="122.62999999999988" y="250" width="170" height="40" as="geometry"/>
                </mxCell>
                <mxCell id="N8ELMqkDkQAh08lZ-lhY-102" value="details" style="text;html=1;strokeColor=none;fillColor=none;align=center;verticalAlign=middle;whiteSpace=wrap;rounded=0;fontFamily=Helvetica;fontStyle=1" vertex="1" parent="1">
                    <mxGeometry x="193.5" y="24.379999999999995" width="90" height="30" as="geometry"/>
                </mxCell>
                <mxCell id="N8ELMqkDkQAh08lZ-lhY-106" style="edgeStyle=none;html=1;" edge="1" parent="1" source="N8ELMqkDkQAh08lZ-lhY-105" target="N8ELMqkDkQAh08lZ-lhY-4">
                    <mxGeometry relative="1" as="geometry"/>
                </mxCell>
                <mxCell id="N8ELMqkDkQAh08lZ-lhY-105" value="notes should be last" style="text;html=1;align=center;verticalAlign=middle;resizable=0;points=[];autosize=1;strokeColor=none;fillColor=none;" vertex="1" parent="1">
                    <mxGeometry x="-778" y="370" width="130" height="30" as="geometry"/>
                </mxCell>
                <mxCell id="N8ELMqkDkQAh08lZ-lhY-120" style="edgeStyle=none;html=1;" edge="1" parent="1" source="N8ELMqkDkQAh08lZ-lhY-110" target="N8ELMqkDkQAh08lZ-lhY-111">
                    <mxGeometry relative="1" as="geometry"/>
                </mxCell>
                <mxCell id="N8ELMqkDkQAh08lZ-lhY-110" value="Icon select&lt;br&gt;select item contains the actual value" style="text;html=1;align=center;verticalAlign=middle;resizable=0;points=[];autosize=1;strokeColor=none;fillColor=none;" vertex="1" parent="1">
                    <mxGeometry x="-850" y="265" width="220" height="40" as="geometry"/>
                </mxCell>
                <mxCell id="N8ELMqkDkQAh08lZ-lhY-111" value="&lt;font style=&quot;font-size: 14px;&quot;&gt;Icon&lt;/font&gt;" style="html=1;shadow=0;dashed=0;shape=mxgraph.bootstrap.rrect;rSize=5;strokeColor=#505050;strokeWidth=1;fillColor=#ffffff;fontColor=#777777;whiteSpace=wrap;align=left;verticalAlign=middle;fontStyle=0;fontSize=18;spacing=20;" vertex="1" parent="1">
                    <mxGeometry x="-623" y="276.25" width="72.99" height="20.38" as="geometry"/>
                </mxCell>
                <mxCell id="N8ELMqkDkQAh08lZ-lhY-112" value="" style="shape=triangle;direction=south;fillColor=#495057;strokeColor=none;perimeter=none;" vertex="1" parent="N8ELMqkDkQAh08lZ-lhY-111">
                    <mxGeometry x="1" y="0.5" width="10" height="5" relative="1" as="geometry">
                        <mxPoint x="-17" y="-2.5" as="offset"/>
                    </mxGeometry>
                </mxCell>
                <mxCell id="N8ELMqkDkQAh08lZ-lhY-118" value="" style="verticalLabelPosition=bottom;shadow=0;dashed=0;align=center;html=1;verticalAlign=top;strokeWidth=1;shape=mxgraph.mockup.forms.colorPicker;chosenColor=#aaddff;" vertex="1" parent="1">
                    <mxGeometry x="-493.86" y="277.63" width="30" height="19" as="geometry"/>
                </mxCell>
                <mxCell id="N8ELMqkDkQAh08lZ-lhY-122" value="" style="html=1;shadow=0;dashed=0;shape=mxgraph.bootstrap.rrect;rSize=5;strokeColor=#ae4132;strokeWidth=1;fillColor=#fad9d5;whiteSpace=wrap;align=left;verticalAlign=middle;fontStyle=0;fontSize=18;spacing=20;" vertex="1" parent="1">
                    <mxGeometry x="-501.85" y="307.13" width="45.98" height="20.38" as="geometry"/>
                </mxCell>
                <mxCell id="N8ELMqkDkQAh08lZ-lhY-123" value="" style="shape=triangle;direction=south;fillColor=#495057;strokeColor=none;perimeter=none;" vertex="1" parent="N8ELMqkDkQAh08lZ-lhY-122">
                    <mxGeometry x="1" y="0.5" width="10" height="5" relative="1" as="geometry">
                        <mxPoint x="-17" y="-2.5" as="offset"/>
                    </mxGeometry>
                </mxCell>
                <mxCell id="N8ELMqkDkQAh08lZ-lhY-124" value="Background color" style="text;html=1;align=center;verticalAlign=middle;resizable=0;points=[];autosize=1;strokeColor=none;fillColor=none;" vertex="1" parent="1">
                    <mxGeometry x="-638" y="302.32" width="120" height="30" as="geometry"/>
                </mxCell>
                <mxCell id="N8ELMqkDkQAh08lZ-lhY-125" value="" style="rounded=0;whiteSpace=wrap;html=1;" vertex="1" parent="1">
                    <mxGeometry x="-403" y="90" width="220" height="330" as="geometry"/>
                </mxCell>
                <mxCell id="N8ELMqkDkQAh08lZ-lhY-133" value="" style="html=1;verticalLabelPosition=bottom;align=center;labelBackgroundColor=#ffffff;verticalAlign=top;strokeWidth=2;strokeColor=#0080F0;shadow=0;dashed=0;shape=mxgraph.ios7.icons.add;fontFamily=Helvetica;" vertex="1" parent="1">
                    <mxGeometry x="-213" y="95" width="20" height="20" as="geometry"/>
                </mxCell>
                <mxCell id="N8ELMqkDkQAh08lZ-lhY-134" value="" style="html=1;verticalLabelPosition=bottom;align=center;labelBackgroundColor=#ffffff;verticalAlign=top;strokeWidth=2;strokeColor=#0080F0;shadow=0;dashed=0;shape=mxgraph.ios7.icons.back;fontFamily=Helvetica;" vertex="1" parent="1">
                    <mxGeometry x="-393" y="100" width="39" height="10" as="geometry"/>
                </mxCell>
                <mxCell id="N8ELMqkDkQAh08lZ-lhY-150" value="" style="html=1;shadow=0;dashed=0;shape=mxgraph.bootstrap.rrect;rSize=5;fillColor=#ffffff;strokeColor=#999999;" vertex="1" parent="1">
                    <mxGeometry x="-361.26" y="190" width="138" height="105" as="geometry"/>
                </mxCell>
                <mxCell id="N8ELMqkDkQAh08lZ-lhY-156" style="edgeStyle=none;html=1;" edge="1" parent="1" source="N8ELMqkDkQAh08lZ-lhY-155" target="N8ELMqkDkQAh08lZ-lhY-118">
                    <mxGeometry relative="1" as="geometry"/>
                </mxCell>
                <mxCell id="N8ELMqkDkQAh08lZ-lhY-155" value="&amp;nbsp;icon color&lt;br&gt;color palette" style="text;html=1;align=center;verticalAlign=middle;resizable=0;points=[];autosize=1;strokeColor=none;fillColor=none;" vertex="1" parent="1">
                    <mxGeometry x="-807" y="305" width="90" height="40" as="geometry"/>
                </mxCell>
                <mxCell id="N8ELMqkDkQAh08lZ-lhY-159" value="Subscription Title" style="rounded=0;whiteSpace=wrap;html=1;fillColor=#d0cee2;strokeColor=#56517e;fontColor=#FFFFFF;" vertex="1" parent="1">
                    <mxGeometry x="-363.26" y="190" width="140" height="35" as="geometry"/>
                </mxCell>
                <mxCell id="N8ELMqkDkQAh08lZ-lhY-160" value="Subscription Title" style="rounded=0;whiteSpace=wrap;html=1;fillColor=#bac8d3;strokeColor=#23445d;fontColor=#FFFFFF;" vertex="1" parent="1">
                    <mxGeometry x="-363" y="225" width="140" height="35" as="geometry"/>
                </mxCell>
                <mxCell id="N8ELMqkDkQAh08lZ-lhY-161" value="Subscription Title" style="rounded=0;whiteSpace=wrap;html=1;fillColor=#a0522d;strokeColor=#6D1F00;fontColor=#ffffff;" vertex="1" parent="1">
                    <mxGeometry x="-363" y="260" width="140" height="35" as="geometry"/>
                </mxCell>
                <mxCell id="N8ELMqkDkQAh08lZ-lhY-163" style="edgeStyle=none;html=1;entryX=1;entryY=0.5;entryDx=0;entryDy=0;fontColor=#000000;" edge="1" parent="1" source="N8ELMqkDkQAh08lZ-lhY-162" target="N8ELMqkDkQAh08lZ-lhY-159">
                    <mxGeometry relative="1" as="geometry"/>
                </mxCell>
                <mxCell id="N8ELMqkDkQAh08lZ-lhY-162" value="&lt;font color=&quot;#000000&quot;&gt;Show the color with the title of the sub&lt;br&gt;alt. just the text lorem ipsum&lt;br&gt;&lt;/font&gt;" style="text;html=1;align=center;verticalAlign=middle;resizable=0;points=[];autosize=1;strokeColor=none;fillColor=none;fontColor=#FFFFFF;" vertex="1" parent="1">
                    <mxGeometry x="-173" y="173.75" width="230" height="40" as="geometry"/>
                </mxCell>
                <mxCell id="N8ELMqkDkQAh08lZ-lhY-164" value="&lt;font color=&quot;#000000&quot;&gt;icon select displays the icon + the selected icon color&lt;br&gt;&lt;/font&gt;" style="text;html=1;align=center;verticalAlign=middle;resizable=0;points=[];autosize=1;strokeColor=none;fillColor=none;fontColor=#FFFFFF;" vertex="1" parent="1">
                    <mxGeometry x="-193" y="237.13" width="310" height="30" as="geometry"/>
                </mxCell>
                <mxCell id="N8ELMqkDkQAh08lZ-lhY-165" value="would be nice to make theese actual dropdowns &lt;br&gt;instead of popup selects" style="text;html=1;align=center;verticalAlign=middle;resizable=0;points=[];autosize=1;strokeColor=none;fillColor=none;fontColor=#000000;" vertex="1" parent="1">
                    <mxGeometry x="-193" y="270" width="280" height="40" as="geometry"/>
                </mxCell>
                <mxCell id="N8ELMqkDkQAh08lZ-lhY-167" style="edgeStyle=none;html=1;fontColor=#000000;" edge="1" parent="1" source="N8ELMqkDkQAh08lZ-lhY-166" target="N8ELMqkDkQAh08lZ-lhY-96">
                    <mxGeometry relative="1" as="geometry"/>
                </mxCell>
                <mxCell id="N8ELMqkDkQAh08lZ-lhY-166" value="Remove the divider below the&lt;br&gt;delete button" style="text;html=1;align=center;verticalAlign=middle;resizable=0;points=[];autosize=1;strokeColor=none;fillColor=none;fontColor=#000000;" vertex="1" parent="1">
                    <mxGeometry x="353" y="355.63" width="180" height="40" as="geometry"/>
                </mxCell>
                <mxCell id="N8ELMqkDkQAh08lZ-lhY-170" style="edgeStyle=none;html=1;entryX=1;entryY=0.75;entryDx=0;entryDy=0;fontColor=#000000;" edge="1" parent="1" source="N8ELMqkDkQAh08lZ-lhY-169" target="N8ELMqkDkQAh08lZ-lhY-81">
                    <mxGeometry relative="1" as="geometry"/>
                </mxCell>
                <mxCell id="N8ELMqkDkQAh08lZ-lhY-169" value="Remove the divider above the&lt;br&gt;mark paid button" style="text;html=1;align=center;verticalAlign=middle;resizable=0;points=[];autosize=1;strokeColor=none;fillColor=none;fontColor=#000000;" vertex="1" parent="1">
                    <mxGeometry x="353" y="243.63" width="180" height="40" as="geometry"/>
                </mxCell>
                <mxCell id="N8ELMqkDkQAh08lZ-lhY-171" value="Border Color" style="text;html=1;align=center;verticalAlign=middle;resizable=0;points=[];autosize=1;strokeColor=none;fillColor=none;fontColor=#000000;" vertex="1" parent="1">
                    <mxGeometry x="-634" y="329.51" width="90" height="30" as="geometry"/>
                </mxCell>
                <mxCell id="N8ELMqkDkQAh08lZ-lhY-172" value="" style="verticalLabelPosition=bottom;shadow=0;dashed=0;align=center;html=1;verticalAlign=top;strokeWidth=1;shape=mxgraph.mockup.forms.colorPicker;chosenColor=#aaddff;" vertex="1" parent="1">
                    <mxGeometry x="-498" y="336.63" width="30" height="19" as="geometry"/>
                </mxCell>
                <mxCell id="N8ELMqkDkQAh08lZ-lhY-173" value="Next payment" style="text;html=1;align=center;verticalAlign=middle;resizable=0;points=[];autosize=1;strokeColor=none;fillColor=none;fontSize=10;fontColor=#000000;textOpacity=80;" vertex="1" parent="1">
                    <mxGeometry x="161.89" y="150.75" width="90" height="30" as="geometry"/>
                </mxCell>
                <mxCell id="N8ELMqkDkQAh08lZ-lhY-175" style="edgeStyle=none;html=1;fontSize=10;fontColor=#000000;" edge="1" parent="1" source="N8ELMqkDkQAh08lZ-lhY-174" target="N8ELMqkDkQAh08lZ-lhY-173">
                    <mxGeometry relative="1" as="geometry"/>
                </mxCell>
                <mxCell id="N8ELMqkDkQAh08lZ-lhY-174" value="Lower opacity on all labels" style="text;html=1;align=center;verticalAlign=middle;resizable=0;points=[];autosize=1;strokeColor=none;fillColor=none;fontSize=12;fontColor=#000000;" vertex="1" parent="1">
                    <mxGeometry x="353" y="180.75" width="160" height="30" as="geometry"/>
                </mxCell>
                <mxCell id="N8ELMqkDkQAh08lZ-lhY-177" style="edgeStyle=none;html=1;fontSize=10;fontColor=#000000;" edge="1" parent="1" source="N8ELMqkDkQAh08lZ-lhY-176" target="N8ELMqkDkQAh08lZ-lhY-91">
                    <mxGeometry relative="1" as="geometry"/>
                </mxCell>
                <mxCell id="N8ELMqkDkQAh08lZ-lhY-176" value="title should use all available space&lt;br style=&quot;font-size: 12px;&quot;&gt;instead of &quot;123&quot; falling&lt;br style=&quot;font-size: 12px;&quot;&gt;on a new line" style="text;html=1;align=center;verticalAlign=middle;resizable=0;points=[];autosize=1;strokeColor=none;fillColor=none;fontSize=12;fontColor=#000000;" vertex="1" parent="1">
                    <mxGeometry x="362" y="81.63" width="200" height="60" as="geometry"/>
                </mxCell>
                <mxCell id="N8ELMqkDkQAh08lZ-lhY-180" style="edgeStyle=none;html=1;entryX=0.925;entryY=0.608;entryDx=0;entryDy=0;entryPerimeter=0;fontSize=10;fontColor=#000000;" edge="1" parent="1" source="N8ELMqkDkQAh08lZ-lhY-179" target="N8ELMqkDkQAh08lZ-lhY-94">
                    <mxGeometry relative="1" as="geometry"/>
                </mxCell>
                <mxCell id="N8ELMqkDkQAh08lZ-lhY-179" value="dividers should use the subs border color&lt;br&gt;turn down the alpha here aswell" style="text;html=1;align=center;verticalAlign=middle;resizable=0;points=[];autosize=1;strokeColor=none;fillColor=none;fontSize=12;fontColor=#000000;" vertex="1" parent="1">
                    <mxGeometry x="352" y="136.63" width="240" height="40" as="geometry"/>
                </mxCell>
                <mxCell id="N8ELMqkDkQAh08lZ-lhY-183" style="edgeStyle=none;html=1;fontSize=12;fontColor=#000000;" edge="1" parent="1" source="N8ELMqkDkQAh08lZ-lhY-181" target="N8ELMqkDkQAh08lZ-lhY-176">
                    <mxGeometry relative="1" as="geometry"/>
                </mxCell>
                <mxCell id="N8ELMqkDkQAh08lZ-lhY-181" value="add the sub icon and center it above title&lt;br&gt;this might fix the issue below" style="text;html=1;align=center;verticalAlign=middle;resizable=0;points=[];autosize=1;strokeColor=none;fillColor=none;fontSize=12;fontColor=#000000;" vertex="1" parent="1">
                    <mxGeometry x="361.01" y="28.059999999999995" width="240" height="40" as="geometry"/>
                </mxCell>
                <mxCell id="N8ELMqkDkQAh08lZ-lhY-184" value="" style="sketch=0;pointerEvents=1;shadow=0;dashed=0;html=1;strokeColor=none;fillColor=#505050;labelPosition=center;verticalLabelPosition=bottom;verticalAlign=top;outlineConnect=0;align=center;shape=mxgraph.office.concepts.credit_card;fontSize=12;fontColor=#000000;" vertex="1" parent="1">
                    <mxGeometry x="227.51" y="54.379999999999995" width="33" height="21.06" as="geometry"/>
                </mxCell>
                <mxCell id="3JEt4zG4nS0GbBf6LBE7-1" value="" style="rounded=0;whiteSpace=wrap;html=1;" vertex="1" parent="1">
                    <mxGeometry x="-629.24" y="628.73" width="250" height="140" as="geometry"/>
                </mxCell>
                <mxCell id="3JEt4zG4nS0GbBf6LBE7-2" value="Home and Monthly &lt;br&gt;(difference on monthly is that we display payment day not days until due, another one is that we dont have any border color)" style="text;html=1;align=center;verticalAlign=middle;resizable=0;points=[];autosize=1;strokeColor=none;fillColor=none;fontSize=12;fontColor=#000000;fontStyle=1" vertex="1" parent="1">
                    <mxGeometry x="-601.74" y="530" width="730" height="40" as="geometry"/>
                </mxCell>
                <mxCell id="3JEt4zG4nS0GbBf6LBE7-5" value="" style="rounded=1;whiteSpace=wrap;html=1;fontSize=12;fillColor=#647687;strokeColor=#314354;fontColor=#ffffff;" vertex="1" parent="1">
                    <mxGeometry x="-619.2399999999999" y="638.73" width="230" height="50" as="geometry"/>
                </mxCell>
                <mxCell id="3JEt4zG4nS0GbBf6LBE7-6" value="Netflix Family plan is..." style="text;html=1;align=center;verticalAlign=middle;resizable=0;points=[];autosize=1;fontSize=12;fontColor=#FFFFFF;" vertex="1" parent="1">
                    <mxGeometry x="-590.2399999999999" y="645.97" width="140" height="30" as="geometry"/>
                </mxCell>
                <mxCell id="3JEt4zG4nS0GbBf6LBE7-8" value="17 days" style="text;html=1;align=center;verticalAlign=middle;resizable=0;points=[];autosize=1;strokeColor=none;fillColor=none;fontSize=12;fontColor=#FFFFFF;" vertex="1" parent="1">
                    <mxGeometry x="-452.24" y="658.73" width="70" height="30" as="geometry"/>
                </mxCell>
                <mxCell id="3JEt4zG4nS0GbBf6LBE7-11" value="1000 kr" style="text;html=1;align=center;verticalAlign=middle;resizable=0;points=[];autosize=1;strokeColor=none;fillColor=none;fontSize=12;fontColor=#FFFFFF;" vertex="1" parent="1">
                    <mxGeometry x="-444.1" y="638.73" width="60" height="30" as="geometry"/>
                </mxCell>
                <mxCell id="tO1z2Q_tyTZBiWLBNu-A-1" value="" style="html=1;verticalLabelPosition=bottom;align=center;labelBackgroundColor=none;verticalAlign=top;strokeWidth=2;shadow=0;dashed=0;shape=mxgraph.ios7.icons.repeat;pointerEvents=1;fontSize=14;fontColor=none;noLabel=1;strokeColor=#FFFFFF;" vertex="1" parent="1">
                    <mxGeometry x="-607.2399999999999" y="667.73" width="14.5" height="15" as="geometry"/>
                </mxCell>
                <mxCell id="tO1z2Q_tyTZBiWLBNu-A-2" value="" style="sketch=0;pointerEvents=1;shadow=0;dashed=0;html=1;strokeColor=#b85450;fillColor=#f8cecc;labelPosition=center;verticalLabelPosition=bottom;verticalAlign=top;outlineConnect=0;align=center;shape=mxgraph.office.concepts.credit_card;fontSize=12;" vertex="1" parent="1">
                    <mxGeometry x="-613.2399999999999" y="641.97" width="26" height="15.53" as="geometry"/>
                </mxCell>
                <mxCell id="tO1z2Q_tyTZBiWLBNu-A-3" value="" style="rounded=0;whiteSpace=wrap;html=1;" vertex="1" parent="1">
                    <mxGeometry x="-361.74" y="780" width="250" height="155" as="geometry"/>
                </mxCell>
                <mxCell id="tO1z2Q_tyTZBiWLBNu-A-4" value="" style="rounded=1;whiteSpace=wrap;html=1;fontSize=12;fillColor=#647687;strokeColor=#314354;fontColor=#ffffff;" vertex="1" parent="1">
                    <mxGeometry x="-351.74" y="800" width="230" height="50" as="geometry"/>
                </mxCell>
                <mxCell id="tO1z2Q_tyTZBiWLBNu-A-5" value="Netflix Family plan is..." style="text;html=1;align=center;verticalAlign=middle;resizable=0;points=[];autosize=1;fontSize=12;fontColor=#FFFFFF;" vertex="1" parent="1">
                    <mxGeometry x="-324.48" y="799.76" width="140" height="30" as="geometry"/>
                </mxCell>
                <mxCell id="tO1z2Q_tyTZBiWLBNu-A-6" value="17 days" style="text;html=1;align=center;verticalAlign=middle;resizable=0;points=[];autosize=1;strokeColor=none;fillColor=none;fontSize=12;fontColor=#FFFFFF;" vertex="1" parent="1">
                    <mxGeometry x="-184.74" y="820" width="70" height="30" as="geometry"/>
                </mxCell>
                <mxCell id="tO1z2Q_tyTZBiWLBNu-A-7" value="1000 kr" style="text;html=1;align=center;verticalAlign=middle;resizable=0;points=[];autosize=1;strokeColor=none;fillColor=none;fontSize=12;fontColor=#FFFFFF;" vertex="1" parent="1">
                    <mxGeometry x="-177.60000000000002" y="800" width="60" height="30" as="geometry"/>
                </mxCell>
                <mxCell id="tO1z2Q_tyTZBiWLBNu-A-8" value="" style="html=1;verticalLabelPosition=bottom;align=center;labelBackgroundColor=none;verticalAlign=top;strokeWidth=2;shadow=0;dashed=0;shape=mxgraph.ios7.icons.repeat;pointerEvents=1;fontSize=14;fontColor=none;noLabel=1;strokeColor=#FFFFFF;" vertex="1" parent="1">
                    <mxGeometry x="-311.74" y="830" width="15.74" height="15" as="geometry"/>
                </mxCell>
                <mxCell id="tO1z2Q_tyTZBiWLBNu-A-9" value="" style="sketch=0;pointerEvents=1;shadow=0;dashed=0;html=1;strokeColor=#b85450;fillColor=#f8cecc;labelPosition=center;verticalLabelPosition=bottom;verticalAlign=top;outlineConnect=0;align=center;shape=mxgraph.office.concepts.credit_card;fontSize=12;" vertex="1" parent="1">
                    <mxGeometry x="-344.74" y="817.23" width="26" height="15.53" as="geometry"/>
                </mxCell>
                <mxCell id="tO1z2Q_tyTZBiWLBNu-A-10" value="" style="rounded=0;whiteSpace=wrap;html=1;" vertex="1" parent="1">
                    <mxGeometry x="-626.2400000000001" y="780" width="250" height="150" as="geometry"/>
                </mxCell>
                <mxCell id="tO1z2Q_tyTZBiWLBNu-A-11" value="" style="rounded=1;whiteSpace=wrap;html=1;fontSize=12;fillColor=#647687;strokeColor=#314354;fontColor=#ffffff;" vertex="1" parent="1">
                    <mxGeometry x="-616.2400000000001" y="800" width="230" height="50" as="geometry"/>
                </mxCell>
                <mxCell id="tO1z2Q_tyTZBiWLBNu-A-12" value="Netflix Family plan is..." style="text;html=1;align=center;verticalAlign=middle;resizable=0;points=[];autosize=1;fontSize=12;fontColor=#FFFFFF;" vertex="1" parent="1">
                    <mxGeometry x="-587.2400000000001" y="807.24" width="140" height="30" as="geometry"/>
                </mxCell>
                <mxCell id="tO1z2Q_tyTZBiWLBNu-A-13" value="17 days" style="text;html=1;align=center;verticalAlign=middle;resizable=0;points=[];autosize=1;strokeColor=none;fillColor=none;fontSize=12;fontColor=#FFFFFF;" vertex="1" parent="1">
                    <mxGeometry x="-449.24" y="820" width="70" height="30" as="geometry"/>
                </mxCell>
                <mxCell id="tO1z2Q_tyTZBiWLBNu-A-14" value="1000 kr" style="text;html=1;align=center;verticalAlign=middle;resizable=0;points=[];autosize=1;strokeColor=none;fillColor=none;fontSize=12;fontColor=#FFFFFF;" vertex="1" parent="1">
                    <mxGeometry x="-442.1" y="800" width="60" height="30" as="geometry"/>
                </mxCell>
                <mxCell id="tO1z2Q_tyTZBiWLBNu-A-15" value="" style="html=1;verticalLabelPosition=bottom;align=center;labelBackgroundColor=none;verticalAlign=top;strokeWidth=2;shadow=0;dashed=0;shape=mxgraph.ios7.icons.repeat;pointerEvents=1;fontSize=14;fontColor=none;noLabel=1;strokeColor=#FFFFFF;" vertex="1" parent="1">
                    <mxGeometry x="-455.25" y="828" width="15.15" height="15" as="geometry"/>
                </mxCell>
                <mxCell id="tO1z2Q_tyTZBiWLBNu-A-16" value="" style="sketch=0;pointerEvents=1;shadow=0;dashed=0;html=1;strokeColor=#b85450;fillColor=#f8cecc;labelPosition=center;verticalLabelPosition=bottom;verticalAlign=top;outlineConnect=0;align=center;shape=mxgraph.office.concepts.credit_card;fontSize=12;" vertex="1" parent="1">
                    <mxGeometry x="-610.2400000000001" y="814.47" width="26" height="15.53" as="geometry"/>
                </mxCell>
                <mxCell id="9i2vIVamzLSSZ7IRX3_x-1" value="select between theese 5&lt;br&gt;discuss with some1/make a poll on DC&amp;nbsp;" style="text;html=1;align=center;verticalAlign=middle;resizable=0;points=[];autosize=1;strokeColor=#b85450;fillColor=#f8cecc;fontSize=16;" vertex="1" parent="1">
                    <mxGeometry x="-396.67" y="570" width="300" height="50" as="geometry"/>
                </mxCell>
                <mxCell id="9i2vIVamzLSSZ7IRX3_x-2" value="" style="rounded=1;whiteSpace=wrap;html=1;fontSize=12;fillColor=#647687;strokeColor=#314354;fontColor=#ffffff;" vertex="1" parent="1">
                    <mxGeometry x="-619.2399999999999" y="698.73" width="230" height="50" as="geometry"/>
                </mxCell>
                <mxCell id="9i2vIVamzLSSZ7IRX3_x-3" value="Netflix Family plan is..." style="text;html=1;align=center;verticalAlign=middle;resizable=0;points=[];autosize=1;fontSize=12;fontColor=#FFFFFF;" vertex="1" parent="1">
                    <mxGeometry x="-590.2399999999999" y="705.97" width="140" height="30" as="geometry"/>
                </mxCell>
                <mxCell id="9i2vIVamzLSSZ7IRX3_x-4" value="17 days" style="text;html=1;align=center;verticalAlign=middle;resizable=0;points=[];autosize=1;strokeColor=none;fillColor=none;fontSize=12;fontColor=#FFFFFF;" vertex="1" parent="1">
                    <mxGeometry x="-452.24" y="718.73" width="70" height="30" as="geometry"/>
                </mxCell>
                <mxCell id="9i2vIVamzLSSZ7IRX3_x-5" value="1000 kr" style="text;html=1;align=center;verticalAlign=middle;resizable=0;points=[];autosize=1;strokeColor=none;fillColor=none;fontSize=12;fontColor=#FFFFFF;" vertex="1" parent="1">
                    <mxGeometry x="-443.1" y="698.73" width="60" height="30" as="geometry"/>
                </mxCell>
                <mxCell id="9i2vIVamzLSSZ7IRX3_x-7" value="" style="sketch=0;pointerEvents=1;shadow=0;dashed=0;html=1;strokeColor=#b85450;fillColor=#f8cecc;labelPosition=center;verticalLabelPosition=bottom;verticalAlign=top;outlineConnect=0;align=center;shape=mxgraph.office.concepts.credit_card;fontSize=12;" vertex="1" parent="1">
                    <mxGeometry x="-613.2399999999999" y="701.97" width="26" height="15.53" as="geometry"/>
                </mxCell>
                <mxCell id="9i2vIVamzLSSZ7IRX3_x-8" value="" style="rounded=1;whiteSpace=wrap;html=1;fontSize=12;fillColor=#647687;strokeColor=#314354;fontColor=#ffffff;" vertex="1" parent="1">
                    <mxGeometry x="-352.6" y="860" width="230" height="50" as="geometry"/>
                </mxCell>
                <mxCell id="9i2vIVamzLSSZ7IRX3_x-9" value="Netflix Family plan is..." style="text;html=1;align=center;verticalAlign=middle;resizable=0;points=[];autosize=1;fontSize=12;fontColor=#FFFFFF;" vertex="1" parent="1">
                    <mxGeometry x="-325.34000000000003" y="859.76" width="140" height="30" as="geometry"/>
                </mxCell>
                <mxCell id="9i2vIVamzLSSZ7IRX3_x-10" value="17 days" style="text;html=1;align=center;verticalAlign=middle;resizable=0;points=[];autosize=1;strokeColor=none;fillColor=none;fontSize=12;fontColor=#FFFFFF;" vertex="1" parent="1">
                    <mxGeometry x="-185.60000000000002" y="880" width="70" height="30" as="geometry"/>
                </mxCell>
                <mxCell id="9i2vIVamzLSSZ7IRX3_x-11" value="1000 kr" style="text;html=1;align=center;verticalAlign=middle;resizable=0;points=[];autosize=1;strokeColor=none;fillColor=none;fontSize=12;fontColor=#FFFFFF;" vertex="1" parent="1">
                    <mxGeometry x="-176.46000000000004" y="860" width="60" height="30" as="geometry"/>
                </mxCell>
                <mxCell id="9i2vIVamzLSSZ7IRX3_x-13" value="" style="sketch=0;pointerEvents=1;shadow=0;dashed=0;html=1;strokeColor=#b85450;fillColor=#f8cecc;labelPosition=center;verticalLabelPosition=bottom;verticalAlign=top;outlineConnect=0;align=center;shape=mxgraph.office.concepts.credit_card;fontSize=12;" vertex="1" parent="1">
                    <mxGeometry x="-345.6" y="877.23" width="26" height="15.53" as="geometry"/>
                </mxCell>
                <mxCell id="9i2vIVamzLSSZ7IRX3_x-14" value="" style="rounded=1;whiteSpace=wrap;html=1;fontSize=12;fillColor=#647687;strokeColor=#314354;fontColor=#ffffff;" vertex="1" parent="1">
                    <mxGeometry x="-616.2400000000001" y="859.76" width="230" height="50" as="geometry"/>
                </mxCell>
                <mxCell id="9i2vIVamzLSSZ7IRX3_x-15" value="Netflix Family plan is..." style="text;html=1;align=center;verticalAlign=middle;resizable=0;points=[];autosize=1;fontSize=12;fontColor=#FFFFFF;" vertex="1" parent="1">
                    <mxGeometry x="-587.2400000000001" y="867" width="140" height="30" as="geometry"/>
                </mxCell>
                <mxCell id="9i2vIVamzLSSZ7IRX3_x-16" value="17 days" style="text;html=1;align=center;verticalAlign=middle;resizable=0;points=[];autosize=1;strokeColor=none;fillColor=none;fontSize=12;fontColor=#FFFFFF;" vertex="1" parent="1">
                    <mxGeometry x="-449.24" y="879.76" width="70" height="30" as="geometry"/>
                </mxCell>
                <mxCell id="9i2vIVamzLSSZ7IRX3_x-17" value="1000 kr" style="text;html=1;align=center;verticalAlign=middle;resizable=0;points=[];autosize=1;strokeColor=none;fillColor=none;fontSize=12;fontColor=#FFFFFF;" vertex="1" parent="1">
                    <mxGeometry x="-441.1" y="859.76" width="60" height="30" as="geometry"/>
                </mxCell>
                <mxCell id="9i2vIVamzLSSZ7IRX3_x-19" value="" style="sketch=0;pointerEvents=1;shadow=0;dashed=0;html=1;strokeColor=#b85450;fillColor=#f8cecc;labelPosition=center;verticalLabelPosition=bottom;verticalAlign=top;outlineConnect=0;align=center;shape=mxgraph.office.concepts.credit_card;fontSize=12;" vertex="1" parent="1">
                    <mxGeometry x="-610.2400000000001" y="874.23" width="26" height="15.53" as="geometry"/>
                </mxCell>
                <mxCell id="9i2vIVamzLSSZ7IRX3_x-32" value="" style="rounded=0;whiteSpace=wrap;html=1;" vertex="1" parent="1">
                    <mxGeometry x="-96.74000000000002" y="620" width="250" height="160" as="geometry"/>
                </mxCell>
                <mxCell id="9i2vIVamzLSSZ7IRX3_x-26" value="" style="rounded=1;whiteSpace=wrap;html=1;fontSize=12;fillColor=#647687;strokeColor=#314354;fontColor=#ffffff;" vertex="1" parent="1">
                    <mxGeometry x="-90.74000000000002" y="632.26" width="230" height="50" as="geometry"/>
                </mxCell>
                <mxCell id="9i2vIVamzLSSZ7IRX3_x-27" value="Netflix Family plan is..." style="text;html=1;align=center;verticalAlign=middle;resizable=0;points=[];autosize=1;fontSize=12;fontColor=#FFFFFF;" vertex="1" parent="1">
                    <mxGeometry x="-61.74000000000002" y="639.5" width="140" height="30" as="geometry"/>
                </mxCell>
                <mxCell id="9i2vIVamzLSSZ7IRX3_x-28" value="17 days" style="text;html=1;align=center;verticalAlign=middle;resizable=0;points=[];autosize=1;strokeColor=none;fillColor=none;fontSize=12;fontColor=#FFFFFF;" vertex="1" parent="1">
                    <mxGeometry x="77.25999999999999" y="652.76" width="70" height="30" as="geometry"/>
                </mxCell>
                <mxCell id="9i2vIVamzLSSZ7IRX3_x-29" value="1000 kr" style="text;html=1;align=center;verticalAlign=middle;resizable=0;points=[];autosize=1;strokeColor=none;fillColor=none;fontSize=12;fontColor=#FFFFFF;" vertex="1" parent="1">
                    <mxGeometry x="84.39999999999998" y="632.26" width="60" height="30" as="geometry"/>
                </mxCell>
                <mxCell id="9i2vIVamzLSSZ7IRX3_x-30" value="" style="html=1;verticalLabelPosition=bottom;align=center;labelBackgroundColor=none;verticalAlign=top;strokeWidth=2;shadow=0;dashed=0;shape=mxgraph.ios7.icons.repeat;pointerEvents=1;fontSize=14;fontColor=none;noLabel=1;strokeColor=#FFFFFF;" vertex="1" parent="1">
                    <mxGeometry x="73.68999999999994" y="646.73" width="15.15" height="15" as="geometry"/>
                </mxCell>
                <mxCell id="9i2vIVamzLSSZ7IRX3_x-31" value="" style="sketch=0;pointerEvents=1;shadow=0;dashed=0;html=1;strokeColor=#b85450;fillColor=#f8cecc;labelPosition=center;verticalLabelPosition=bottom;verticalAlign=top;outlineConnect=0;align=center;shape=mxgraph.office.concepts.credit_card;fontSize=12;" vertex="1" parent="1">
                    <mxGeometry x="-84.74000000000002" y="646.73" width="26" height="15.53" as="geometry"/>
                </mxCell>
                <mxCell id="9i2vIVamzLSSZ7IRX3_x-41" value="" style="rounded=1;whiteSpace=wrap;html=1;fontSize=12;fillColor=#647687;strokeColor=#314354;fontColor=#ffffff;" vertex="1" parent="1">
                    <mxGeometry x="-88.74000000000002" y="700.26" width="230" height="50" as="geometry"/>
                </mxCell>
                <mxCell id="9i2vIVamzLSSZ7IRX3_x-42" value="Netflix Family plan is..." style="text;html=1;align=center;verticalAlign=middle;resizable=0;points=[];autosize=1;fontSize=12;fontColor=#FFFFFF;" vertex="1" parent="1">
                    <mxGeometry x="-59.74000000000002" y="707.5" width="140" height="30" as="geometry"/>
                </mxCell>
                <mxCell id="9i2vIVamzLSSZ7IRX3_x-44" value="" style="sketch=0;pointerEvents=1;shadow=0;dashed=0;html=1;strokeColor=#b85450;fillColor=#f8cecc;labelPosition=center;verticalLabelPosition=bottom;verticalAlign=top;outlineConnect=0;align=center;shape=mxgraph.office.concepts.credit_card;fontSize=12;" vertex="1" parent="1">
                    <mxGeometry x="-82.74000000000002" y="714.73" width="26" height="15.53" as="geometry"/>
                </mxCell>
                <mxCell id="9i2vIVamzLSSZ7IRX3_x-45" value="17 days" style="text;html=1;align=center;verticalAlign=middle;resizable=0;points=[];autosize=1;strokeColor=none;fillColor=none;fontSize=12;fontColor=#FFFFFF;" vertex="1" parent="1">
                    <mxGeometry x="75.69000000000005" y="722.26" width="70" height="30" as="geometry"/>
                </mxCell>
                <mxCell id="9i2vIVamzLSSZ7IRX3_x-46" value="1000 kr" style="text;html=1;align=center;verticalAlign=middle;resizable=0;points=[];autosize=1;strokeColor=none;fillColor=none;fontSize=12;fontColor=#FFFFFF;" vertex="1" parent="1">
                    <mxGeometry x="83.39999999999998" y="699.5" width="60" height="30" as="geometry"/>
                </mxCell>
                <mxCell id="9i2vIVamzLSSZ7IRX3_x-47" value="" style="rounded=0;whiteSpace=wrap;html=1;" vertex="1" parent="1">
                    <mxGeometry x="-368.67" y="633.23" width="250" height="140" as="geometry"/>
                </mxCell>
                <mxCell id="9i2vIVamzLSSZ7IRX3_x-20" value="" style="rounded=1;whiteSpace=wrap;html=1;fontSize=12;fillColor=#647687;strokeColor=#314354;fontColor=#ffffff;" vertex="1" parent="1">
                    <mxGeometry x="-361.67" y="640.97" width="230" height="50" as="geometry"/>
                </mxCell>
                <mxCell id="9i2vIVamzLSSZ7IRX3_x-21" value="Netflix Family plan is..." style="text;html=1;align=center;verticalAlign=middle;resizable=0;points=[];autosize=1;fontSize=12;fontColor=#FFFFFF;" vertex="1" parent="1">
                    <mxGeometry x="-332.67" y="648.21" width="140" height="30" as="geometry"/>
                </mxCell>
                <mxCell id="9i2vIVamzLSSZ7IRX3_x-22" value="17 days" style="text;html=1;align=center;verticalAlign=middle;resizable=0;points=[];autosize=1;strokeColor=none;fillColor=none;fontSize=12;fontColor=#FFFFFF;" vertex="1" parent="1">
                    <mxGeometry x="-220.67000000000002" y="661.47" width="70" height="30" as="geometry"/>
                </mxCell>
                <mxCell id="9i2vIVamzLSSZ7IRX3_x-23" value="1000 kr" style="text;html=1;align=center;verticalAlign=middle;resizable=0;points=[];autosize=1;strokeColor=none;fillColor=none;fontSize=12;fontColor=#FFFFFF;" vertex="1" parent="1">
                    <mxGeometry x="-186.53000000000003" y="640.97" width="60" height="30" as="geometry"/>
                </mxCell>
                <mxCell id="9i2vIVamzLSSZ7IRX3_x-24" value="" style="html=1;verticalLabelPosition=bottom;align=center;labelBackgroundColor=none;verticalAlign=top;strokeWidth=2;shadow=0;dashed=0;shape=mxgraph.ios7.icons.repeat;pointerEvents=1;fontSize=14;fontColor=none;noLabel=1;strokeColor=#FFFFFF;" vertex="1" parent="1">
                    <mxGeometry x="-154.67000000000002" y="668.97" width="15.15" height="15" as="geometry"/>
                </mxCell>
                <mxCell id="9i2vIVamzLSSZ7IRX3_x-25" value="" style="sketch=0;pointerEvents=1;shadow=0;dashed=0;html=1;strokeColor=#b85450;fillColor=#f8cecc;labelPosition=center;verticalLabelPosition=bottom;verticalAlign=top;outlineConnect=0;align=center;shape=mxgraph.office.concepts.credit_card;fontSize=12;" vertex="1" parent="1">
                    <mxGeometry x="-355.67" y="655.44" width="26" height="15.53" as="geometry"/>
                </mxCell>
                <mxCell id="9i2vIVamzLSSZ7IRX3_x-48" value="" style="rounded=1;whiteSpace=wrap;html=1;fontSize=12;fillColor=#647687;strokeColor=#314354;fontColor=#ffffff;" vertex="1" parent="1">
                    <mxGeometry x="-361.74" y="710.22" width="230" height="50" as="geometry"/>
                </mxCell>
                <mxCell id="9i2vIVamzLSSZ7IRX3_x-49" value="Netflix Family plan is..." style="text;html=1;align=center;verticalAlign=middle;resizable=0;points=[];autosize=1;fontSize=12;fontColor=#FFFFFF;" vertex="1" parent="1">
                    <mxGeometry x="-332.74" y="717.46" width="140" height="30" as="geometry"/>
                </mxCell>
                <mxCell id="9i2vIVamzLSSZ7IRX3_x-50" value="17 days" style="text;html=1;align=center;verticalAlign=middle;resizable=0;points=[];autosize=1;strokeColor=none;fillColor=none;fontSize=12;fontColor=#FFFFFF;" vertex="1" parent="1">
                    <mxGeometry x="-196.67000000000002" y="731.23" width="70" height="30" as="geometry"/>
                </mxCell>
                <mxCell id="9i2vIVamzLSSZ7IRX3_x-51" value="1000 kr" style="text;html=1;align=center;verticalAlign=middle;resizable=0;points=[];autosize=1;strokeColor=none;fillColor=none;fontSize=12;fontColor=#FFFFFF;" vertex="1" parent="1">
                    <mxGeometry x="-186.60000000000002" y="710.22" width="60" height="30" as="geometry"/>
                </mxCell>
                <mxCell id="9i2vIVamzLSSZ7IRX3_x-53" value="" style="sketch=0;pointerEvents=1;shadow=0;dashed=0;html=1;strokeColor=#b85450;fillColor=#f8cecc;labelPosition=center;verticalLabelPosition=bottom;verticalAlign=top;outlineConnect=0;align=center;shape=mxgraph.office.concepts.credit_card;fontSize=12;" vertex="1" parent="1">
                    <mxGeometry x="-355.74" y="724.69" width="26" height="15.53" as="geometry"/>
                </mxCell>
                <mxCell id="9i2vIVamzLSSZ7IRX3_x-55" style="edgeStyle=none;html=1;entryX=0;entryY=0.25;entryDx=0;entryDy=0;fontSize=12;fontColor=#000000;" edge="1" parent="1" source="9i2vIVamzLSSZ7IRX3_x-54" target="3JEt4zG4nS0GbBf6LBE7-5">
                    <mxGeometry relative="1" as="geometry"/>
                </mxCell>
                <mxCell id="9i2vIVamzLSSZ7IRX3_x-54" value="&lt;font color=&quot;#000000&quot;&gt;need to make the cards wider&amp;nbsp;&lt;br&gt;to fit more text and icon&lt;br&gt;&lt;/font&gt;" style="text;html=1;align=center;verticalAlign=middle;resizable=0;points=[];autosize=1;strokeColor=none;fillColor=none;fontSize=12;fontColor=#FFFFFF;" vertex="1" parent="1">
                    <mxGeometry x="-829.1199999999999" y="629.73" width="180" height="40" as="geometry"/>
                </mxCell>
                <mxCell id="9i2vIVamzLSSZ7IRX3_x-57" style="edgeStyle=none;html=1;fontSize=12;fontColor=#000000;" edge="1" parent="1" source="9i2vIVamzLSSZ7IRX3_x-56" target="3JEt4zG4nS0GbBf6LBE7-5">
                    <mxGeometry relative="1" as="geometry"/>
                </mxCell>
                <mxCell id="9i2vIVamzLSSZ7IRX3_x-56" value="&lt;font color=&quot;#000000&quot;&gt;make them less fat&amp;nbsp;&lt;br&gt;remove padding on all sides&lt;br&gt;&lt;/font&gt;" style="text;html=1;align=center;verticalAlign=middle;resizable=0;points=[];autosize=1;strokeColor=none;fillColor=none;fontSize=12;fontColor=#FFFFFF;" vertex="1" parent="1">
                    <mxGeometry x="-824.1199999999999" y="677.5" width="170" height="40" as="geometry"/>
                </mxCell>
                <mxCell id="9i2vIVamzLSSZ7IRX3_x-59" style="edgeStyle=none;html=1;entryX=0;entryY=1;entryDx=0;entryDy=0;fontSize=12;fontColor=#000000;" edge="1" parent="1" source="9i2vIVamzLSSZ7IRX3_x-58" target="9i2vIVamzLSSZ7IRX3_x-2">
                    <mxGeometry relative="1" as="geometry"/>
                </mxCell>
                <mxCell id="9i2vIVamzLSSZ7IRX3_x-58" value="&lt;font color=&quot;#000000&quot;&gt;the sides should be rounded&lt;br&gt;&lt;/font&gt;" style="text;html=1;align=center;verticalAlign=middle;resizable=0;points=[];autosize=1;strokeColor=none;fillColor=none;fontSize=12;fontColor=#FFFFFF;" vertex="1" parent="1">
                    <mxGeometry x="-826.1199999999999" y="723.49" width="170" height="30" as="geometry"/>
                </mxCell>
            </root>
        </mxGraphModel>
    </diagram>
    <diagram id="ilvPsca5tyLwuQnfgiDb" name="Billing Cycle">
        <mxGraphModel dx="1166" dy="759" grid="1" gridSize="10" guides="1" tooltips="1" connect="1" arrows="1" fold="1" page="1" pageScale="1" pageWidth="850" pageHeight="1100" math="0" shadow="0">
            <root>
                <mxCell id="0"/>
                <mxCell id="1" parent="0"/>
                <mxCell id="Z9JITIKt05j3liIrWbOT-88" value="" style="rounded=0;whiteSpace=wrap;html=1;fontSize=18;" parent="1" vertex="1">
                    <mxGeometry x="240" width="1470" height="1130" as="geometry"/>
                </mxCell>
                <mxCell id="J-TMN0GzBHDueG2wAT_5-2" value="" style="rounded=0;whiteSpace=wrap;html=1;" parent="1" vertex="1">
                    <mxGeometry x="605" y="40" width="220" height="315" as="geometry"/>
                </mxCell>
                <mxCell id="J-TMN0GzBHDueG2wAT_5-3" value="Title" style="html=1;shadow=0;dashed=0;shape=mxgraph.bootstrap.rrect;rSize=5;fillColor=none;strokeColor=#999999;align=left;spacing=15;fontSize=14;fontColor=#6C767D;" parent="1" vertex="1">
                    <mxGeometry x="640" y="65" width="150" height="30" as="geometry"/>
                </mxCell>
                <mxCell id="J-TMN0GzBHDueG2wAT_5-4" value="Notes..." style="html=1;shadow=0;dashed=0;shape=mxgraph.bootstrap.rrect;rSize=5;fillColor=none;strokeColor=#999999;align=left;spacing=15;fontSize=14;fontColor=#6C767D;" parent="1" vertex="1">
                    <mxGeometry x="630" y="226.25" width="150" height="50" as="geometry"/>
                </mxCell>
                <mxCell id="J-TMN0GzBHDueG2wAT_5-5" value="Cost" style="html=1;shadow=0;dashed=0;shape=mxgraph.bootstrap.rrect;rSize=5;fillColor=none;strokeColor=#999999;align=left;spacing=15;fontSize=14;fontColor=#6C767D;" parent="1" vertex="1">
                    <mxGeometry x="640" y="105" width="150" height="30" as="geometry"/>
                </mxCell>
                <mxCell id="J-TMN0GzBHDueG2wAT_5-6" value="Auto paid" style="rounded=1;arcSize=10;html=1;fontSize=11;align=center;fontStyle=0;fontSize=11;sketch=0;hachureGap=4;pointerEvents=0;fontFamily=Helvetica;strokeColor=none;direction=south;" parent="1" vertex="1">
                    <mxGeometry x="635" y="193.75" width="40" height="32.5" as="geometry"/>
                </mxCell>
                <mxCell id="J-TMN0GzBHDueG2wAT_5-7" value="" style="fillColor=#36B37E;strokeColor=none;rounded=1;arcSize=50;sketch=0;hachureGap=4;pointerEvents=0;fontFamily=Architects Daughter;fontSource=https%3A%2F%2Ffonts.googleapis.com%2Fcss%3Ffamily%3DArchitects%2BDaughter;fontSize=20;" parent="1" vertex="1">
                    <mxGeometry x="750" y="200" width="40" height="20" as="geometry"/>
                </mxCell>
                <mxCell id="J-TMN0GzBHDueG2wAT_5-8" value="" style="shape=ellipse;strokeColor=none;fillColor=#ffffff;sketch=0;hachureGap=4;pointerEvents=0;fontFamily=Architects Daughter;fontSource=https%3A%2F%2Ffonts.googleapis.com%2Fcss%3Ffamily%3DArchitects%2BDaughter;fontSize=20;" parent="J-TMN0GzBHDueG2wAT_5-7" vertex="1">
                    <mxGeometry x="1" y="0.5" width="16" height="16" relative="1" as="geometry">
                        <mxPoint x="-17" y="-8" as="offset"/>
                    </mxGeometry>
                </mxCell>
                <mxCell id="J-TMN0GzBHDueG2wAT_5-9" value="" style="html=1;shadow=0;dashed=0;shape=mxgraph.atlassian.check;strokeColor=#ffffff;strokeWidth=2;sketch=1;hachureGap=4;pointerEvents=0;fontFamily=Architects Daughter;fontSource=https%3A%2F%2Ffonts.googleapis.com%2Fcss%3Ffamily%3DArchitects%2BDaughter;fontSize=20;" parent="J-TMN0GzBHDueG2wAT_5-7" vertex="1">
                    <mxGeometry y="0.5" width="10" height="8" relative="1" as="geometry">
                        <mxPoint x="6" y="-5" as="offset"/>
                    </mxGeometry>
                </mxCell>
                <mxCell id="J-TMN0GzBHDueG2wAT_5-10" value="" style="html=1;verticalLabelPosition=bottom;align=center;labelBackgroundColor=#ffffff;verticalAlign=top;strokeWidth=2;strokeColor=#0080F0;shadow=0;dashed=0;shape=mxgraph.ios7.icons.add;fontFamily=Helvetica;" parent="1" vertex="1">
                    <mxGeometry x="795" y="45" width="20" height="20" as="geometry"/>
                </mxCell>
                <mxCell id="J-TMN0GzBHDueG2wAT_5-11" value="" style="html=1;verticalLabelPosition=bottom;align=center;labelBackgroundColor=#ffffff;verticalAlign=top;strokeWidth=2;strokeColor=#0080F0;shadow=0;dashed=0;shape=mxgraph.ios7.icons.back;fontFamily=Helvetica;" parent="1" vertex="1">
                    <mxGeometry x="615" y="50" width="39" height="10" as="geometry"/>
                </mxCell>
                <mxCell id="J-TMN0GzBHDueG2wAT_5-13" value="create/edit sub" style="text;html=1;strokeColor=none;fillColor=none;align=center;verticalAlign=middle;whiteSpace=wrap;rounded=0;fontFamily=Helvetica;" parent="1" vertex="1">
                    <mxGeometry x="654" y="10" width="90" height="30" as="geometry"/>
                </mxCell>
                <mxCell id="J-TMN0GzBHDueG2wAT_5-15" value="latest payment" style="text;html=1;strokeColor=none;fillColor=none;align=center;verticalAlign=middle;whiteSpace=wrap;rounded=0;fontFamily=Helvetica;" parent="1" vertex="1">
                    <mxGeometry x="614.5" y="168.75" width="110.5" height="25" as="geometry"/>
                </mxCell>
                <mxCell id="J-TMN0GzBHDueG2wAT_5-16" value="03/12/2023" style="html=1;shadow=0;dashed=0;shape=mxgraph.bootstrap.rrect;rSize=5;fillColor=none;strokeColor=#999999;align=left;spacing=15;fontSize=14;fontColor=#6C767D;" parent="1" vertex="1">
                    <mxGeometry x="715" y="171.25" width="92.25" height="20" as="geometry"/>
                </mxCell>
                <mxCell id="J-TMN0GzBHDueG2wAT_5-17" value="Paid Every" style="text;html=1;align=center;verticalAlign=middle;resizable=0;points=[];autosize=1;strokeColor=none;fillColor=none;" parent="1" vertex="1">
                    <mxGeometry x="605" y="138.56" width="80" height="30" as="geometry"/>
                </mxCell>
                <mxCell id="J-TMN0GzBHDueG2wAT_5-18" value="1" style="html=1;shadow=0;dashed=0;shape=mxgraph.bootstrap.rrect;rSize=5;fillColor=none;strokeColor=#999999;align=left;spacing=15;fontSize=14;fontColor=#6C767D;" parent="1" vertex="1">
                    <mxGeometry x="685" y="145" width="40" height="18.75" as="geometry"/>
                </mxCell>
                <mxCell id="J-TMN0GzBHDueG2wAT_5-22" value="&lt;font style=&quot;font-size: 14px;&quot;&gt;Month&lt;/font&gt;" style="html=1;shadow=0;dashed=0;shape=mxgraph.bootstrap.rrect;rSize=5;strokeColor=#505050;strokeWidth=1;fillColor=#ffffff;fontColor=#777777;whiteSpace=wrap;align=left;verticalAlign=middle;fontStyle=0;fontSize=18;spacing=20;" parent="1" vertex="1">
                    <mxGeometry x="730" y="143.37" width="85" height="20.38" as="geometry"/>
                </mxCell>
                <mxCell id="J-TMN0GzBHDueG2wAT_5-23" value="" style="shape=triangle;direction=south;fillColor=#495057;strokeColor=none;perimeter=none;" parent="J-TMN0GzBHDueG2wAT_5-22" vertex="1">
                    <mxGeometry x="1" y="0.5" width="10" height="5" relative="1" as="geometry">
                        <mxPoint x="-17" y="-2.5" as="offset"/>
                    </mxGeometry>
                </mxCell>
                <mxCell id="J-TMN0GzBHDueG2wAT_5-25" style="edgeStyle=none;html=1;fontSize=14;" parent="1" source="J-TMN0GzBHDueG2wAT_5-24" target="J-TMN0GzBHDueG2wAT_5-22" edge="1">
                    <mxGeometry relative="1" as="geometry"/>
                </mxCell>
                <mxCell id="J-TMN0GzBHDueG2wAT_5-24" value="dropdown&lt;br&gt;week, year etc.." style="text;html=1;align=center;verticalAlign=middle;resizable=0;points=[];autosize=1;strokeColor=none;fillColor=none;fontSize=14;" parent="1" vertex="1">
                    <mxGeometry x="830" y="105" width="120" height="50" as="geometry"/>
                </mxCell>
                <mxCell id="J-TMN0GzBHDueG2wAT_5-27" style="edgeStyle=none;html=1;entryX=0.994;entryY=0.517;entryDx=0;entryDy=0;entryPerimeter=0;fontSize=14;" parent="1" source="J-TMN0GzBHDueG2wAT_5-26" target="J-TMN0GzBHDueG2wAT_5-22" edge="1">
                    <mxGeometry relative="1" as="geometry"/>
                </mxCell>
                <mxCell id="J-TMN0GzBHDueG2wAT_5-26" value="Pluralize if numerical value is &amp;gt; 1" style="text;html=1;align=center;verticalAlign=middle;resizable=0;points=[];autosize=1;strokeColor=none;fillColor=none;fontSize=14;" parent="1" vertex="1">
                    <mxGeometry x="835" y="163.75" width="230" height="30" as="geometry"/>
                </mxCell>
                <mxCell id="J-TMN0GzBHDueG2wAT_5-29" style="edgeStyle=none;html=1;fontSize=14;" parent="1" source="J-TMN0GzBHDueG2wAT_5-28" target="J-TMN0GzBHDueG2wAT_5-17" edge="1">
                    <mxGeometry relative="1" as="geometry"/>
                </mxCell>
                <mxCell id="J-TMN0GzBHDueG2wAT_5-28" value="If paid every is too long,&lt;br&gt;&amp;nbsp;display only &quot;every&quot;&lt;br&gt;alternatively &quot;every&quot; and above it write &quot;Billing Cycle&quot;" style="text;html=1;align=center;verticalAlign=middle;resizable=0;points=[];autosize=1;strokeColor=none;fillColor=none;fontSize=14;" parent="1" vertex="1">
                    <mxGeometry x="250" y="75" width="350" height="60" as="geometry"/>
                </mxCell>
                <mxCell id="Z9JITIKt05j3liIrWbOT-1" value="" style="rounded=0;whiteSpace=wrap;html=1;" parent="1" vertex="1">
                    <mxGeometry x="1130" y="40" width="220" height="330" as="geometry"/>
                </mxCell>
                <mxCell id="Z9JITIKt05j3liIrWbOT-2" value="" style="html=1;verticalLabelPosition=bottom;align=center;labelBackgroundColor=#ffffff;verticalAlign=top;strokeWidth=2;strokeColor=#0080F0;shadow=0;dashed=0;shape=mxgraph.ios7.icons.back;fontFamily=Helvetica;" parent="1" vertex="1">
                    <mxGeometry x="1150.25" y="63" width="39" height="15" as="geometry"/>
                </mxCell>
                <mxCell id="Z9JITIKt05j3liIrWbOT-3" value="sub details" style="text;html=1;strokeColor=none;fillColor=none;align=center;verticalAlign=middle;whiteSpace=wrap;rounded=0;fontFamily=Helvetica;" parent="1" vertex="1">
                    <mxGeometry x="1169" y="10" width="91" height="30" as="geometry"/>
                </mxCell>
                <mxCell id="Z9JITIKt05j3liIrWbOT-5" value="&lt;span style=&quot;color: rgb(0, 0, 0); font-size: 12px;&quot;&gt;Mark paid&lt;/span&gt;" style="rounded=1;html=1;shadow=0;dashed=0;whiteSpace=wrap;fontSize=10;align=center;fontFamily=Helvetica;fillColor=#dae8fc;strokeColor=#6c8ebf;" parent="1" vertex="1">
                    <mxGeometry x="1186.87" y="190.12" width="105.5" height="16.88" as="geometry"/>
                </mxCell>
                <mxCell id="Z9JITIKt05j3liIrWbOT-6" value="" style="sketch=0;html=1;aspect=fixed;shadow=0;align=center;verticalAlign=top;shape=mxgraph.gcp2.check;fontFamily=Helvetica;" parent="1" vertex="1">
                    <mxGeometry x="1192.62" y="191.12" width="18.75" height="15" as="geometry"/>
                </mxCell>
                <mxCell id="Z9JITIKt05j3liIrWbOT-7" value="" style="html=1;verticalLabelPosition=bottom;align=center;labelBackgroundColor=#ffffff;verticalAlign=top;strokeWidth=2;strokeColor=#0080F0;shadow=0;dashed=0;shape=mxgraph.ios7.icons.compose;fontFamily=Helvetica;" parent="1" vertex="1">
                    <mxGeometry x="1287" y="51.940000000000055" width="29.099999999999998" height="29.099999999999998" as="geometry"/>
                </mxCell>
                <mxCell id="Z9JITIKt05j3liIrWbOT-8" value="Latest payment jul 10, 2023&amp;nbsp;" style="text;html=1;strokeColor=none;fillColor=none;align=center;verticalAlign=middle;whiteSpace=wrap;rounded=0;fontFamily=Helvetica;" parent="1" vertex="1">
                    <mxGeometry x="1159.62" y="223" width="156" height="26" as="geometry"/>
                </mxCell>
                <mxCell id="Z9JITIKt05j3liIrWbOT-9" value="&lt;br&gt;&lt;font style=&quot;font-size: 14px;&quot;&gt;&lt;br&gt;Jul 25, 2023&lt;br&gt;15 days&lt;/font&gt;" style="text;html=1;strokeColor=none;fillColor=none;align=center;verticalAlign=middle;whiteSpace=wrap;rounded=0;fontSize=14;" parent="1" vertex="1">
                    <mxGeometry x="1173.62" y="130" width="113.75" height="20" as="geometry"/>
                </mxCell>
                <mxCell id="Z9JITIKt05j3liIrWbOT-10" value="Annually - $360" style="text;html=1;strokeColor=none;fillColor=none;align=center;verticalAlign=middle;whiteSpace=wrap;rounded=0;fontSize=12;" parent="1" vertex="1">
                    <mxGeometry x="1178.12" y="259" width="114.25" height="30" as="geometry"/>
                </mxCell>
                <mxCell id="Z9JITIKt05j3liIrWbOT-11" value="" style="verticalLabelPosition=bottom;shadow=0;dashed=0;align=center;html=1;verticalAlign=top;strokeWidth=1;shape=mxgraph.mockup.markup.line;strokeColor=#999999;fontSize=12;" parent="1" vertex="1">
                    <mxGeometry x="1158.25" y="170" width="160" height="20" as="geometry"/>
                </mxCell>
                <mxCell id="Z9JITIKt05j3liIrWbOT-12" value="" style="verticalLabelPosition=bottom;shadow=0;dashed=0;align=center;html=1;verticalAlign=top;strokeWidth=1;shape=mxgraph.mockup.markup.line;strokeColor=#999999;fontSize=12;" parent="1" vertex="1">
                    <mxGeometry x="1159.62" y="206" width="160" height="20" as="geometry"/>
                </mxCell>
                <mxCell id="Z9JITIKt05j3liIrWbOT-13" value="" style="verticalLabelPosition=bottom;shadow=0;dashed=0;align=center;html=1;verticalAlign=top;strokeWidth=1;shape=mxgraph.mockup.markup.line;strokeColor=#999999;fontSize=12;" parent="1" vertex="1">
                    <mxGeometry x="1159.62" y="249" width="160" height="20" as="geometry"/>
                </mxCell>
                <mxCell id="Z9JITIKt05j3liIrWbOT-14" value="" style="verticalLabelPosition=bottom;shadow=0;dashed=0;align=center;html=1;verticalAlign=top;strokeWidth=1;shape=mxgraph.mockup.markup.line;strokeColor=#999999;fontSize=12;" parent="1" vertex="1">
                    <mxGeometry x="1161.75" y="281" width="160" height="20" as="geometry"/>
                </mxCell>
                <mxCell id="Z9JITIKt05j3liIrWbOT-15" value="Note....&lt;br&gt;sdsfads" style="rounded=1;arcSize=10;html=1;fontSize=11;align=center;fontStyle=0;fontSize=11;sketch=0;hachureGap=4;pointerEvents=0;fontFamily=Helvetica;strokeColor=none;direction=south;" parent="1" vertex="1">
                    <mxGeometry x="1169.62" y="296" width="37" height="35" as="geometry"/>
                </mxCell>
                <mxCell id="Z9JITIKt05j3liIrWbOT-16" value="Netflix" style="text;html=1;strokeColor=none;fillColor=none;align=center;verticalAlign=middle;whiteSpace=wrap;rounded=0;fontSize=14;" parent="1" vertex="1">
                    <mxGeometry x="1175.13" y="55.92000000000007" width="113.75" height="38.12" as="geometry"/>
                </mxCell>
                <mxCell id="Z9JITIKt05j3liIrWbOT-17" value="" style="html=1;verticalLabelPosition=bottom;align=center;labelBackgroundColor=#ffffff;verticalAlign=top;strokeWidth=2;strokeColor=#0080F0;shadow=0;dashed=0;shape=mxgraph.ios7.icons.repeat;pointerEvents=1;fontSize=14;" parent="1" vertex="1">
                    <mxGeometry x="1246" y="86.83999999999992" width="22" height="20.16" as="geometry"/>
                </mxCell>
                <mxCell id="Z9JITIKt05j3liIrWbOT-18" value="$30" style="text;html=1;strokeColor=none;fillColor=none;align=center;verticalAlign=middle;whiteSpace=wrap;rounded=0;fontSize=14;" parent="1" vertex="1">
                    <mxGeometry x="1185.0000000000002" y="81" width="61" height="30" as="geometry"/>
                </mxCell>
                <mxCell id="Z9JITIKt05j3liIrWbOT-19" value="" style="verticalLabelPosition=bottom;shadow=0;dashed=0;align=center;html=1;verticalAlign=top;strokeWidth=1;shape=mxgraph.mockup.markup.line;strokeColor=#999999;fontSize=12;" parent="1" vertex="1">
                    <mxGeometry x="1156.5" y="120" width="160" height="20" as="geometry"/>
                </mxCell>
                <mxCell id="Z9JITIKt05j3liIrWbOT-20" value="" style="verticalLabelPosition=bottom;shadow=0;dashed=0;align=center;html=1;verticalAlign=top;strokeWidth=1;shape=mxgraph.mockup.markup.line;strokeColor=#999999;fontSize=12;" parent="1" vertex="1">
                    <mxGeometry x="1153" y="75" width="160" height="20" as="geometry"/>
                </mxCell>
                <mxCell id="Z9JITIKt05j3liIrWbOT-21" value="Delete" style="rounded=1;html=1;shadow=0;dashed=0;whiteSpace=wrap;fontSize=10;fillColor=#f8cecc;align=center;strokeColor=#b85450;" parent="1" vertex="1">
                    <mxGeometry x="1173.62" y="336.12" width="105.5" height="16.88" as="geometry"/>
                </mxCell>
                <mxCell id="Z9JITIKt05j3liIrWbOT-23" value="" style="html=1;verticalLabelPosition=bottom;align=center;labelBackgroundColor=#ffffff;verticalAlign=top;strokeWidth=2;strokeColor=#0080F0;shadow=0;dashed=0;shape=mxgraph.ios7.icons.trashcan;" parent="1" vertex="1">
                    <mxGeometry x="1181.12" y="339.55999999999995" width="14" height="10" as="geometry"/>
                </mxCell>
                <mxCell id="Z9JITIKt05j3liIrWbOT-24" value="every week" style="text;html=1;align=center;verticalAlign=middle;resizable=0;points=[];autosize=1;strokeColor=none;fillColor=none;fontSize=14;" parent="1" vertex="1">
                    <mxGeometry x="1185" y="104" width="90" height="30" as="geometry"/>
                </mxCell>
                <mxCell id="Z9JITIKt05j3liIrWbOT-26" style="edgeStyle=none;html=1;fontSize=14;" parent="1" source="Z9JITIKt05j3liIrWbOT-25" target="Z9JITIKt05j3liIrWbOT-24" edge="1">
                    <mxGeometry relative="1" as="geometry"/>
                </mxCell>
                <mxCell id="Z9JITIKt05j3liIrWbOT-25" value="show numerical value &lt;br&gt;and pluralize week when &amp;gt; 1&lt;br&gt;e.g every 2 weeks" style="text;html=1;align=center;verticalAlign=middle;resizable=0;points=[];autosize=1;strokeColor=none;fillColor=none;fontSize=14;" parent="1" vertex="1">
                    <mxGeometry x="1365" y="79" width="200" height="60" as="geometry"/>
                </mxCell>
                <mxCell id="Z9JITIKt05j3liIrWbOT-87" style="edgeStyle=none;html=1;entryX=0.115;entryY=0.004;entryDx=0;entryDy=0;entryPerimeter=0;fontSize=12;" parent="1" source="Z9JITIKt05j3liIrWbOT-27" target="Z9JITIKt05j3liIrWbOT-28" edge="1">
                    <mxGeometry relative="1" as="geometry"/>
                </mxCell>
                <mxCell id="Z9JITIKt05j3liIrWbOT-118" style="edgeStyle=none;html=1;entryX=0.926;entryY=-0.003;entryDx=0;entryDy=0;entryPerimeter=0;fontSize=18;" parent="1" source="Z9JITIKt05j3liIrWbOT-27" target="Z9JITIKt05j3liIrWbOT-89" edge="1">
                    <mxGeometry relative="1" as="geometry"/>
                </mxCell>
                <mxCell id="Z9JITIKt05j3liIrWbOT-27" value="If decided to use &quot;Billing Cycle&quot; on edit/create page&lt;br style=&quot;font-size: 16px;&quot;&gt;might want to make it consistent.&amp;nbsp;&lt;br style=&quot;font-size: 16px;&quot;&gt;&lt;br style=&quot;font-size: 16px;&quot;&gt;If you want to choose one of theese 3 discuss with some1 on DC" style="text;html=1;align=center;verticalAlign=middle;resizable=0;points=[];autosize=1;strokeColor=#b85450;fillColor=#f8cecc;fontSize=16;" parent="1" vertex="1">
                    <mxGeometry x="1037" y="590" width="480" height="90" as="geometry"/>
                </mxCell>
                <mxCell id="Z9JITIKt05j3liIrWbOT-28" value="" style="rounded=0;whiteSpace=wrap;html=1;" parent="1" vertex="1">
                    <mxGeometry x="1197" y="720" width="220" height="370" as="geometry"/>
                </mxCell>
                <mxCell id="Z9JITIKt05j3liIrWbOT-29" value="" style="html=1;verticalLabelPosition=bottom;align=center;labelBackgroundColor=#ffffff;verticalAlign=top;strokeWidth=2;strokeColor=#0080F0;shadow=0;dashed=0;shape=mxgraph.ios7.icons.back;fontFamily=Helvetica;" parent="1" vertex="1">
                    <mxGeometry x="1217.25" y="743" width="39" height="15" as="geometry"/>
                </mxCell>
                <mxCell id="Z9JITIKt05j3liIrWbOT-30" value="sub details - CENTERED" style="text;html=1;strokeColor=none;fillColor=none;align=center;verticalAlign=middle;whiteSpace=wrap;rounded=0;fontFamily=Helvetica;" parent="1" vertex="1">
                    <mxGeometry x="1236" y="690" width="91" height="30" as="geometry"/>
                </mxCell>
                <mxCell id="Z9JITIKt05j3liIrWbOT-31" value="&lt;span style=&quot;color: rgb(0, 0, 0); font-size: 12px;&quot;&gt;Mark paid&lt;/span&gt;" style="rounded=1;html=1;shadow=0;dashed=0;whiteSpace=wrap;fontSize=10;align=center;fontFamily=Helvetica;fillColor=#dae8fc;strokeColor=#6c8ebf;" parent="1" vertex="1">
                    <mxGeometry x="1251.87" y="906.12" width="105.5" height="16.88" as="geometry"/>
                </mxCell>
                <mxCell id="Z9JITIKt05j3liIrWbOT-32" value="" style="sketch=0;html=1;aspect=fixed;shadow=0;align=center;verticalAlign=top;shape=mxgraph.gcp2.check;fontFamily=Helvetica;" parent="1" vertex="1">
                    <mxGeometry x="1257.62" y="907.12" width="18.75" height="15" as="geometry"/>
                </mxCell>
                <mxCell id="Z9JITIKt05j3liIrWbOT-33" value="" style="html=1;verticalLabelPosition=bottom;align=center;labelBackgroundColor=#ffffff;verticalAlign=top;strokeWidth=2;strokeColor=#0080F0;shadow=0;dashed=0;shape=mxgraph.ios7.icons.compose;fontFamily=Helvetica;" parent="1" vertex="1">
                    <mxGeometry x="1354" y="731.94" width="29.099999999999998" height="29.099999999999998" as="geometry"/>
                </mxCell>
                <mxCell id="Z9JITIKt05j3liIrWbOT-35" value="&lt;br&gt;&lt;font style=&quot;&quot;&gt;&lt;br&gt;&lt;font style=&quot;font-size: 12px;&quot;&gt;Next Payment&lt;/font&gt;&lt;br&gt;Jul 25, 2023&lt;br&gt;15 days&lt;/font&gt;" style="text;html=1;strokeColor=none;fillColor=none;align=center;verticalAlign=middle;whiteSpace=wrap;rounded=0;fontSize=14;" parent="1" vertex="1">
                    <mxGeometry x="1242.1299999999999" y="846" width="113.75" height="20" as="geometry"/>
                </mxCell>
                <mxCell id="Z9JITIKt05j3liIrWbOT-36" value="Annually&lt;br&gt;&lt;font style=&quot;font-size: 14px;&quot;&gt;$360&lt;/font&gt;" style="text;html=1;strokeColor=none;fillColor=none;align=center;verticalAlign=middle;whiteSpace=wrap;rounded=0;fontSize=12;" parent="1" vertex="1">
                    <mxGeometry x="1243.87" y="970" width="114.25" height="30" as="geometry"/>
                </mxCell>
                <mxCell id="Z9JITIKt05j3liIrWbOT-37" value="" style="verticalLabelPosition=bottom;shadow=0;dashed=0;align=center;html=1;verticalAlign=top;strokeWidth=1;shape=mxgraph.mockup.markup.line;strokeColor=#999999;fontSize=12;" parent="1" vertex="1">
                    <mxGeometry x="1224.62" y="889.56" width="160" height="20" as="geometry"/>
                </mxCell>
                <mxCell id="Z9JITIKt05j3liIrWbOT-38" value="" style="verticalLabelPosition=bottom;shadow=0;dashed=0;align=center;html=1;verticalAlign=top;strokeWidth=1;shape=mxgraph.mockup.markup.line;strokeColor=#999999;fontSize=12;" parent="1" vertex="1">
                    <mxGeometry x="1226.62" y="923" width="160" height="20" as="geometry"/>
                </mxCell>
                <mxCell id="Z9JITIKt05j3liIrWbOT-39" value="" style="verticalLabelPosition=bottom;shadow=0;dashed=0;align=center;html=1;verticalAlign=top;strokeWidth=1;shape=mxgraph.mockup.markup.line;strokeColor=#999999;fontSize=12;" parent="1" vertex="1">
                    <mxGeometry x="1227" y="960" width="160" height="20" as="geometry"/>
                </mxCell>
                <mxCell id="Z9JITIKt05j3liIrWbOT-40" value="" style="verticalLabelPosition=bottom;shadow=0;dashed=0;align=center;html=1;verticalAlign=top;strokeWidth=1;shape=mxgraph.mockup.markup.line;strokeColor=#999999;fontSize=12;" parent="1" vertex="1">
                    <mxGeometry x="1222.24" y="990" width="160" height="20" as="geometry"/>
                </mxCell>
                <mxCell id="Z9JITIKt05j3liIrWbOT-41" value="Note....&lt;br&gt;sdsfads" style="rounded=1;arcSize=10;html=1;fontSize=11;align=center;fontStyle=0;fontSize=11;sketch=0;hachureGap=4;pointerEvents=0;fontFamily=Helvetica;strokeColor=none;direction=south;" parent="1" vertex="1">
                    <mxGeometry x="1245.12" y="1000" width="104" height="35" as="geometry"/>
                </mxCell>
                <mxCell id="Z9JITIKt05j3liIrWbOT-42" value="Netflix" style="text;html=1;strokeColor=none;fillColor=none;align=center;verticalAlign=middle;whiteSpace=wrap;rounded=0;fontSize=14;" parent="1" vertex="1">
                    <mxGeometry x="1242.13" y="735.9200000000001" width="113.75" height="38.12" as="geometry"/>
                </mxCell>
                <mxCell id="Z9JITIKt05j3liIrWbOT-43" value="" style="html=1;verticalLabelPosition=bottom;align=center;labelBackgroundColor=#ffffff;verticalAlign=top;strokeWidth=2;strokeColor=#0080F0;shadow=0;dashed=0;shape=mxgraph.ios7.icons.repeat;pointerEvents=1;fontSize=14;" parent="1" vertex="1">
                    <mxGeometry x="1316" y="770.8399999999999" width="22" height="20.16" as="geometry"/>
                </mxCell>
                <mxCell id="Z9JITIKt05j3liIrWbOT-44" value="$30" style="text;html=1;strokeColor=none;fillColor=none;align=center;verticalAlign=middle;whiteSpace=wrap;rounded=0;fontSize=14;" parent="1" vertex="1">
                    <mxGeometry x="1263.9900000000002" y="771" width="61" height="30" as="geometry"/>
                </mxCell>
                <mxCell id="Z9JITIKt05j3liIrWbOT-45" value="" style="verticalLabelPosition=bottom;shadow=0;dashed=0;align=center;html=1;verticalAlign=top;strokeWidth=1;shape=mxgraph.mockup.markup.line;strokeColor=#999999;fontSize=12;" parent="1" vertex="1">
                    <mxGeometry x="1226.62" y="791" width="160" height="20" as="geometry"/>
                </mxCell>
                <mxCell id="Z9JITIKt05j3liIrWbOT-46" value="" style="verticalLabelPosition=bottom;shadow=0;dashed=0;align=center;html=1;verticalAlign=top;strokeWidth=1;shape=mxgraph.mockup.markup.line;strokeColor=#999999;fontSize=12;" parent="1" vertex="1">
                    <mxGeometry x="1220" y="755" width="160" height="20" as="geometry"/>
                </mxCell>
                <mxCell id="Z9JITIKt05j3liIrWbOT-47" value="Delete" style="rounded=1;html=1;shadow=0;dashed=0;whiteSpace=wrap;fontSize=10;fillColor=#f8cecc;align=center;strokeColor=#b85450;" parent="1" vertex="1">
                    <mxGeometry x="1249.4899999999998" y="1050" width="105.5" height="16.88" as="geometry"/>
                </mxCell>
                <mxCell id="Z9JITIKt05j3liIrWbOT-48" value="" style="html=1;verticalLabelPosition=bottom;align=center;labelBackgroundColor=#ffffff;verticalAlign=top;strokeWidth=2;strokeColor=#0080F0;shadow=0;dashed=0;shape=mxgraph.ios7.icons.trashcan;" parent="1" vertex="1">
                    <mxGeometry x="1259.62" y="1050" width="14" height="10" as="geometry"/>
                </mxCell>
                <mxCell id="Z9JITIKt05j3liIrWbOT-49" value="&lt;span style=&quot;font-size: 12px;&quot;&gt;Billing Cycle&lt;/span&gt;&lt;br&gt;every week" style="text;html=1;align=center;verticalAlign=middle;resizable=0;points=[];autosize=1;strokeColor=none;fillColor=none;fontSize=14;" parent="1" vertex="1">
                    <mxGeometry x="1249.49" y="796" width="90" height="50" as="geometry"/>
                </mxCell>
                <mxCell id="Z9JITIKt05j3liIrWbOT-51" value="" style="verticalLabelPosition=bottom;shadow=0;dashed=0;align=center;html=1;verticalAlign=top;strokeWidth=1;shape=mxgraph.mockup.markup.line;strokeColor=#999999;fontSize=12;" parent="1" vertex="1">
                    <mxGeometry x="1223.1" y="834" width="160" height="20" as="geometry"/>
                </mxCell>
                <mxCell id="Z9JITIKt05j3liIrWbOT-53" value="&lt;span style=&quot;font-size: 12px;&quot;&gt;Latest payment&lt;br&gt;&lt;/span&gt;&lt;span style=&quot;font-size: 14px;&quot;&gt;jul 10, 2023&amp;nbsp;&lt;/span&gt;&lt;span style=&quot;font-size: 12px;&quot;&gt;&lt;br&gt;&lt;/span&gt;" style="text;html=1;align=center;verticalAlign=middle;resizable=0;points=[];autosize=1;strokeColor=none;fillColor=none;fontSize=12;" parent="1" vertex="1">
                    <mxGeometry x="1245.88" y="930" width="110" height="40" as="geometry"/>
                </mxCell>
                <mxCell id="2" style="edgeStyle=none;html=1;entryX=0;entryY=0.25;entryDx=0;entryDy=0;" parent="1" source="Z9JITIKt05j3liIrWbOT-81" target="Z9JITIKt05j3liIrWbOT-35" edge="1">
                    <mxGeometry relative="1" as="geometry"/>
                </mxCell>
                <mxCell id="Z9JITIKt05j3liIrWbOT-81" value="Add Next payment text" style="text;html=1;align=center;verticalAlign=middle;resizable=0;points=[];autosize=1;strokeColor=none;fillColor=none;fontSize=12;" parent="1" vertex="1">
                    <mxGeometry x="1045" y="836" width="140" height="30" as="geometry"/>
                </mxCell>
                <mxCell id="Z9JITIKt05j3liIrWbOT-119" style="edgeStyle=none;html=1;entryX=1;entryY=0.5;entryDx=0;entryDy=0;fontSize=18;" parent="1" source="Z9JITIKt05j3liIrWbOT-84" target="Z9JITIKt05j3liIrWbOT-10" edge="1">
                    <mxGeometry relative="1" as="geometry"/>
                </mxCell>
                <mxCell id="Z9JITIKt05j3liIrWbOT-84" value="Not Displayed if the sub cycle is Annually" style="text;html=1;align=center;verticalAlign=middle;resizable=0;points=[];autosize=1;strokeColor=none;fillColor=none;fontSize=12;" parent="1" vertex="1">
                    <mxGeometry x="1377.5" y="262" width="240" height="30" as="geometry"/>
                </mxCell>
                <mxCell id="Z9JITIKt05j3liIrWbOT-89" value="" style="rounded=0;whiteSpace=wrap;html=1;" parent="1" vertex="1">
                    <mxGeometry x="1482.1299999999999" y="755" width="220" height="370" as="geometry"/>
                </mxCell>
                <mxCell id="Z9JITIKt05j3liIrWbOT-90" value="" style="html=1;verticalLabelPosition=bottom;align=center;labelBackgroundColor=#ffffff;verticalAlign=top;strokeWidth=2;strokeColor=#0080F0;shadow=0;dashed=0;shape=mxgraph.ios7.icons.back;fontFamily=Helvetica;" parent="1" vertex="1">
                    <mxGeometry x="1502.3799999999999" y="778" width="39" height="15" as="geometry"/>
                </mxCell>
                <mxCell id="Z9JITIKt05j3liIrWbOT-91" value="&lt;span style=&quot;color: rgb(0, 0, 0); font-size: 12px;&quot;&gt;Mark paid&lt;/span&gt;" style="rounded=1;html=1;shadow=0;dashed=0;whiteSpace=wrap;fontSize=10;align=center;fontFamily=Helvetica;fillColor=#dae8fc;strokeColor=#6c8ebf;" parent="1" vertex="1">
                    <mxGeometry x="1536.9999999999998" y="941.12" width="105.5" height="16.88" as="geometry"/>
                </mxCell>
                <mxCell id="Z9JITIKt05j3liIrWbOT-92" value="" style="sketch=0;html=1;aspect=fixed;shadow=0;align=center;verticalAlign=top;shape=mxgraph.gcp2.check;fontFamily=Helvetica;" parent="1" vertex="1">
                    <mxGeometry x="1542.7499999999998" y="942.12" width="18.75" height="15" as="geometry"/>
                </mxCell>
                <mxCell id="Z9JITIKt05j3liIrWbOT-93" value="" style="html=1;verticalLabelPosition=bottom;align=center;labelBackgroundColor=#ffffff;verticalAlign=top;strokeWidth=2;strokeColor=#0080F0;shadow=0;dashed=0;shape=mxgraph.ios7.icons.compose;fontFamily=Helvetica;" parent="1" vertex="1">
                    <mxGeometry x="1639.1299999999999" y="766.94" width="29.099999999999998" height="29.099999999999998" as="geometry"/>
                </mxCell>
                <mxCell id="Z9JITIKt05j3liIrWbOT-94" value="&lt;br&gt;&lt;font style=&quot;&quot;&gt;&lt;br&gt;&lt;font style=&quot;font-size: 12px;&quot;&gt;Next Payment&lt;/font&gt;&lt;br&gt;&amp;nbsp; &amp;nbsp; &amp;nbsp; &amp;nbsp; &amp;nbsp; &amp;nbsp; &amp;nbsp; &amp;nbsp;Jul 25, 2023&lt;br&gt;&amp;nbsp; &amp;nbsp; &amp;nbsp; &amp;nbsp; &amp;nbsp; &amp;nbsp; &amp;nbsp; &amp;nbsp; 15 days&lt;/font&gt;" style="text;html=1;strokeColor=none;fillColor=none;align=center;verticalAlign=middle;whiteSpace=wrap;rounded=0;fontSize=14;" parent="1" vertex="1">
                    <mxGeometry x="1470.1299999999999" y="878" width="155.76" height="20" as="geometry"/>
                </mxCell>
                <mxCell id="Z9JITIKt05j3liIrWbOT-95" value="&amp;nbsp; Annually&lt;br&gt;&lt;font style=&quot;font-size: 14px;&quot;&gt;&amp;nbsp; &amp;nbsp; &amp;nbsp; &amp;nbsp; &amp;nbsp; &amp;nbsp; &amp;nbsp; &amp;nbsp; &amp;nbsp; &amp;nbsp; &amp;nbsp; &amp;nbsp;$360&lt;/font&gt;" style="text;html=1;strokeColor=none;fillColor=none;align=center;verticalAlign=middle;whiteSpace=wrap;rounded=0;fontSize=12;" parent="1" vertex="1">
                    <mxGeometry x="1468.12" y="1005" width="142" height="30" as="geometry"/>
                </mxCell>
                <mxCell id="Z9JITIKt05j3liIrWbOT-96" value="" style="verticalLabelPosition=bottom;shadow=0;dashed=0;align=center;html=1;verticalAlign=top;strokeWidth=1;shape=mxgraph.mockup.markup.line;strokeColor=#999999;fontSize=12;" parent="1" vertex="1">
                    <mxGeometry x="1509.75" y="924.56" width="160" height="20" as="geometry"/>
                </mxCell>
                <mxCell id="Z9JITIKt05j3liIrWbOT-97" value="" style="verticalLabelPosition=bottom;shadow=0;dashed=0;align=center;html=1;verticalAlign=top;strokeWidth=1;shape=mxgraph.mockup.markup.line;strokeColor=#999999;fontSize=12;" parent="1" vertex="1">
                    <mxGeometry x="1511.7499999999998" y="958" width="160" height="20" as="geometry"/>
                </mxCell>
                <mxCell id="Z9JITIKt05j3liIrWbOT-98" value="" style="verticalLabelPosition=bottom;shadow=0;dashed=0;align=center;html=1;verticalAlign=top;strokeWidth=1;shape=mxgraph.mockup.markup.line;strokeColor=#999999;fontSize=12;" parent="1" vertex="1">
                    <mxGeometry x="1512.1299999999997" y="995" width="160" height="20" as="geometry"/>
                </mxCell>
                <mxCell id="Z9JITIKt05j3liIrWbOT-99" value="" style="verticalLabelPosition=bottom;shadow=0;dashed=0;align=center;html=1;verticalAlign=top;strokeWidth=1;shape=mxgraph.mockup.markup.line;strokeColor=#999999;fontSize=12;" parent="1" vertex="1">
                    <mxGeometry x="1507.37" y="1025" width="160" height="20" as="geometry"/>
                </mxCell>
                <mxCell id="Z9JITIKt05j3liIrWbOT-100" value="Note....&lt;br&gt;sdsfads" style="rounded=1;arcSize=10;html=1;fontSize=11;align=center;fontStyle=0;fontSize=11;sketch=0;hachureGap=4;pointerEvents=0;fontFamily=Helvetica;strokeColor=none;direction=south;" parent="1" vertex="1">
                    <mxGeometry x="1535.37" y="1038.88" width="104" height="35" as="geometry"/>
                </mxCell>
                <mxCell id="Z9JITIKt05j3liIrWbOT-101" value="Netflix" style="text;html=1;strokeColor=none;fillColor=none;align=center;verticalAlign=middle;whiteSpace=wrap;rounded=0;fontSize=18;" parent="1" vertex="1">
                    <mxGeometry x="1527.26" y="770.9200000000001" width="113.75" height="38.12" as="geometry"/>
                </mxCell>
                <mxCell id="Z9JITIKt05j3liIrWbOT-102" value="" style="html=1;verticalLabelPosition=bottom;align=center;labelBackgroundColor=#ffffff;verticalAlign=top;strokeWidth=2;strokeColor=#0080F0;shadow=0;dashed=0;shape=mxgraph.ios7.icons.repeat;pointerEvents=1;fontSize=14;" parent="1" vertex="1">
                    <mxGeometry x="1596.3799999999999" y="805.8399999999999" width="22" height="20.16" as="geometry"/>
                </mxCell>
                <mxCell id="Z9JITIKt05j3liIrWbOT-103" value="$30" style="text;html=1;strokeColor=none;fillColor=none;align=center;verticalAlign=middle;whiteSpace=wrap;rounded=0;fontSize=18;" parent="1" vertex="1">
                    <mxGeometry x="1549.1200000000001" y="806" width="61" height="30" as="geometry"/>
                </mxCell>
                <mxCell id="Z9JITIKt05j3liIrWbOT-104" value="" style="verticalLabelPosition=bottom;shadow=0;dashed=0;align=center;html=1;verticalAlign=top;strokeWidth=1;shape=mxgraph.mockup.markup.line;strokeColor=#999999;fontSize=12;" parent="1" vertex="1">
                    <mxGeometry x="1511.75" y="826" width="160" height="20" as="geometry"/>
                </mxCell>
                <mxCell id="Z9JITIKt05j3liIrWbOT-105" value="" style="verticalLabelPosition=bottom;shadow=0;dashed=0;align=center;html=1;verticalAlign=top;strokeWidth=1;shape=mxgraph.mockup.markup.line;strokeColor=#999999;fontSize=12;" parent="1" vertex="1">
                    <mxGeometry x="1505.1299999999999" y="790" width="160" height="20" as="geometry"/>
                </mxCell>
                <mxCell id="Z9JITIKt05j3liIrWbOT-106" value="Delete" style="rounded=1;html=1;shadow=0;dashed=0;whiteSpace=wrap;fontSize=10;fillColor=#f8cecc;align=center;strokeColor=#b85450;" parent="1" vertex="1">
                    <mxGeometry x="1534.62" y="1085" width="105.5" height="16.88" as="geometry"/>
                </mxCell>
                <mxCell id="Z9JITIKt05j3liIrWbOT-107" value="" style="html=1;verticalLabelPosition=bottom;align=center;labelBackgroundColor=#ffffff;verticalAlign=top;strokeWidth=2;strokeColor=#0080F0;shadow=0;dashed=0;shape=mxgraph.ios7.icons.trashcan;" parent="1" vertex="1">
                    <mxGeometry x="1544.7499999999998" y="1085" width="14" height="10" as="geometry"/>
                </mxCell>
                <mxCell id="Z9JITIKt05j3liIrWbOT-108" value="&lt;span style=&quot;font-size: 12px;&quot;&gt;Billing Cycle&lt;/span&gt;&lt;br&gt;&amp;nbsp; &amp;nbsp; &amp;nbsp; &amp;nbsp; &amp;nbsp; &amp;nbsp; &amp;nbsp; &amp;nbsp; &amp;nbsp;every week" style="text;html=1;align=center;verticalAlign=middle;resizable=0;points=[];autosize=1;strokeColor=none;fillColor=none;fontSize=14;" parent="1" vertex="1">
                    <mxGeometry x="1470.1299999999999" y="831" width="160" height="50" as="geometry"/>
                </mxCell>
                <mxCell id="Z9JITIKt05j3liIrWbOT-109" value="" style="verticalLabelPosition=bottom;shadow=0;dashed=0;align=center;html=1;verticalAlign=top;strokeWidth=1;shape=mxgraph.mockup.markup.line;strokeColor=#999999;fontSize=12;" parent="1" vertex="1">
                    <mxGeometry x="1508.23" y="869" width="160" height="20" as="geometry"/>
                </mxCell>
                <mxCell id="Z9JITIKt05j3liIrWbOT-110" value="&lt;span style=&quot;font-size: 12px;&quot;&gt;Latest payment&lt;br&gt;&lt;/span&gt;&lt;span style=&quot;font-size: 14px;&quot;&gt;&amp;nbsp; &amp;nbsp; &amp;nbsp; &amp;nbsp; &amp;nbsp; &amp;nbsp; &amp;nbsp; &amp;nbsp; &amp;nbsp; jul 10, 2023&amp;nbsp;&lt;/span&gt;&lt;span style=&quot;font-size: 12px;&quot;&gt;&lt;br&gt;&lt;/span&gt;" style="text;html=1;align=center;verticalAlign=middle;resizable=0;points=[];autosize=1;strokeColor=none;fillColor=none;fontSize=12;" parent="1" vertex="1">
                    <mxGeometry x="1468.2399999999998" y="965" width="170" height="40" as="geometry"/>
                </mxCell>
                <mxCell id="Z9JITIKt05j3liIrWbOT-117" value="Center Mix" style="text;html=1;align=center;verticalAlign=middle;resizable=0;points=[];autosize=1;strokeColor=none;fillColor=none;fontSize=12;" parent="1" vertex="1">
                    <mxGeometry x="1539.62" y="720" width="80" height="30" as="geometry"/>
                </mxCell>
            </root>
        </mxGraphModel>
    </diagram>
    <diagram id="ZfLP8LR-eF0503JV7WAy" name="MVP">
        <mxGraphModel dx="1496" dy="759" grid="1" gridSize="10" guides="1" tooltips="1" connect="1" arrows="1" fold="1" page="1" pageScale="1" pageWidth="827" pageHeight="1169" math="0" shadow="0">
            <root>
                <mxCell id="0"/>
                <mxCell id="1" parent="0"/>
                <mxCell id="30" value="" style="rounded=0;whiteSpace=wrap;html=1;" parent="1" vertex="1">
                    <mxGeometry y="30" width="810" height="770" as="geometry"/>
                </mxCell>
                <mxCell id="b24Po_RPNGTW8iFf8xUd-1" value="" style="rounded=0;whiteSpace=wrap;html=1;" parent="1" vertex="1">
                    <mxGeometry x="220" y="120" width="220" height="260" as="geometry"/>
                </mxCell>
                <mxCell id="b24Po_RPNGTW8iFf8xUd-2" value="Startpage" style="text;html=1;align=center;verticalAlign=middle;resizable=0;points=[];autosize=1;strokeColor=none;fillColor=none;" parent="1" vertex="1">
                    <mxGeometry x="290" y="90" width="80" height="30" as="geometry"/>
                </mxCell>
                <mxCell id="5lJUivoG57lTy25en4lW-2" value="" style="rounded=0;whiteSpace=wrap;html=1;" parent="1" vertex="1">
                    <mxGeometry x="220" y="460" width="220" height="230" as="geometry"/>
                </mxCell>
                <mxCell id="5lJUivoG57lTy25en4lW-3" value="Subscriptions" style="text;html=1;align=center;verticalAlign=middle;resizable=0;points=[];autosize=1;strokeColor=none;fillColor=none;" parent="1" vertex="1">
                    <mxGeometry x="270" y="420" width="100" height="30" as="geometry"/>
                </mxCell>
                <mxCell id="5lJUivoG57lTy25en4lW-4" value="This page shows when next payment is due for each subscription&lt;br&gt;&amp;nbsp;you have providing you with an easy access list of all subscriptions." style="text;html=1;align=center;verticalAlign=middle;resizable=0;points=[];autosize=1;strokeColor=none;fillColor=none;fixedWidth=1;" parent="1" vertex="1">
                    <mxGeometry x="250" y="80" width="730" height="40" as="geometry"/>
                </mxCell>
                <mxCell id="5lJUivoG57lTy25en4lW-7" value="This shows each month &lt;br&gt;so you can plan better" style="text;html=1;align=center;verticalAlign=middle;resizable=0;points=[];autosize=1;strokeColor=none;fillColor=none;" parent="1" vertex="1">
                    <mxGeometry x="440" y="450" width="150" height="40" as="geometry"/>
                </mxCell>
                <mxCell id="5lJUivoG57lTy25en4lW-9" value="" style="rounded=0;whiteSpace=wrap;html=1;" parent="1" vertex="1">
                    <mxGeometry x="270" y="190" width="120" height="60" as="geometry"/>
                </mxCell>
                <mxCell id="5lJUivoG57lTy25en4lW-10" value="$30" style="text;html=1;align=center;verticalAlign=middle;resizable=0;points=[];autosize=1;strokeColor=none;fillColor=none;" parent="1" vertex="1">
                    <mxGeometry x="350" y="190" width="40" height="30" as="geometry"/>
                </mxCell>
                <mxCell id="5lJUivoG57lTy25en4lW-11" value="2 days" style="text;html=1;align=center;verticalAlign=middle;resizable=0;points=[];autosize=1;strokeColor=none;fillColor=none;" parent="1" vertex="1">
                    <mxGeometry x="335" y="220" width="60" height="30" as="geometry"/>
                </mxCell>
                <mxCell id="5lJUivoG57lTy25en4lW-12" value="&lt;b&gt;netflix&lt;/b&gt;" style="text;html=1;align=center;verticalAlign=middle;resizable=0;points=[];autosize=1;strokeColor=none;fillColor=none;" parent="1" vertex="1">
                    <mxGeometry x="275" y="205" width="60" height="30" as="geometry"/>
                </mxCell>
                <mxCell id="5lJUivoG57lTy25en4lW-15" value="" style="rounded=0;whiteSpace=wrap;html=1;" parent="1" vertex="1">
                    <mxGeometry x="270" y="265" width="120" height="60" as="geometry"/>
                </mxCell>
                <mxCell id="5lJUivoG57lTy25en4lW-16" value="$40" style="text;html=1;align=center;verticalAlign=middle;resizable=0;points=[];autosize=1;strokeColor=none;fillColor=none;" parent="1" vertex="1">
                    <mxGeometry x="350" y="265" width="40" height="30" as="geometry"/>
                </mxCell>
                <mxCell id="5lJUivoG57lTy25en4lW-17" value="35 days" style="text;html=1;align=center;verticalAlign=middle;resizable=0;points=[];autosize=1;strokeColor=none;fillColor=none;" parent="1" vertex="1">
                    <mxGeometry x="330" y="295" width="70" height="30" as="geometry"/>
                </mxCell>
                <mxCell id="5lJUivoG57lTy25en4lW-18" value="&lt;b&gt;disney+&lt;/b&gt;" style="text;html=1;align=center;verticalAlign=middle;resizable=0;points=[];autosize=1;strokeColor=none;fillColor=none;" parent="1" vertex="1">
                    <mxGeometry x="270" y="280" width="70" height="30" as="geometry"/>
                </mxCell>
                <mxCell id="ICn5KsOmjvi_41hKFWcF-1" value="Sorted by the next payment date" style="text;html=1;align=center;verticalAlign=middle;resizable=0;points=[];autosize=1;strokeColor=none;fillColor=none;" parent="1" vertex="1">
                    <mxGeometry x="10" y="205" width="200" height="30" as="geometry"/>
                </mxCell>
                <mxCell id="ICn5KsOmjvi_41hKFWcF-8" value="" style="whiteSpace=wrap;html=1;" parent="1" vertex="1">
                    <mxGeometry x="220" y="120" width="220" height="40" as="geometry"/>
                </mxCell>
                <mxCell id="ICn5KsOmjvi_41hKFWcF-6" value="Total costs&amp;nbsp;&lt;br&gt;per month&lt;br&gt;" style="text;html=1;align=center;verticalAlign=middle;resizable=0;points=[];autosize=1;strokeColor=none;fillColor=none;" parent="1" vertex="1">
                    <mxGeometry x="250" y="120" width="80" height="40" as="geometry"/>
                </mxCell>
                <mxCell id="ICn5KsOmjvi_41hKFWcF-7" value="$70" style="text;html=1;align=center;verticalAlign=middle;resizable=0;points=[];autosize=1;strokeColor=none;fillColor=none;" parent="1" vertex="1">
                    <mxGeometry x="360" y="125" width="40" height="30" as="geometry"/>
                </mxCell>
                <mxCell id="3" value="" style="rounded=0;whiteSpace=wrap;html=1;" parent="1" vertex="1">
                    <mxGeometry x="220" y="461" width="220" height="20" as="geometry"/>
                </mxCell>
                <mxCell id="2" value="June&amp;nbsp; &amp;nbsp;&amp;nbsp;&lt;span style=&quot;white-space: pre;&quot;&gt;&#9;&lt;/span&gt;&lt;span style=&quot;white-space: pre;&quot;&gt;&#9;&lt;/span&gt;&lt;span style=&quot;white-space: pre;&quot;&gt;&#9;&lt;/span&gt;$30" style="text;html=1;align=center;verticalAlign=middle;resizable=0;points=[];autosize=1;strokeColor=none;fillColor=none;" parent="1" vertex="1">
                    <mxGeometry x="250" y="455" width="150" height="30" as="geometry"/>
                </mxCell>
                <mxCell id="4" value="" style="rounded=0;whiteSpace=wrap;html=1;" parent="1" vertex="1">
                    <mxGeometry x="220" y="511" width="220" height="20" as="geometry"/>
                </mxCell>
                <mxCell id="5" value="July &lt;span style=&quot;white-space: pre;&quot;&gt;&#9;&lt;/span&gt;&lt;span style=&quot;white-space: pre;&quot;&gt;&#9;&lt;/span&gt;&lt;span style=&quot;white-space: pre;&quot;&gt;&#9;&lt;/span&gt;&lt;span style=&quot;white-space: pre;&quot;&gt;&#9;&lt;/span&gt;&lt;span style=&quot;white-space: pre;&quot;&gt;&#9;&lt;/span&gt;$30" style="text;html=1;align=center;verticalAlign=middle;resizable=0;points=[];autosize=1;strokeColor=none;fillColor=none;" parent="1" vertex="1">
                    <mxGeometry x="230" y="506" width="180" height="30" as="geometry"/>
                </mxCell>
                <mxCell id="10" value="" style="rounded=0;whiteSpace=wrap;html=1;" parent="1" vertex="1">
                    <mxGeometry x="220" y="480" width="220" height="30" as="geometry"/>
                </mxCell>
                <mxCell id="11" value="netflix" style="text;html=1;align=center;verticalAlign=middle;resizable=0;points=[];autosize=1;strokeColor=none;fillColor=none;" parent="1" vertex="1">
                    <mxGeometry x="238" y="471" width="50" height="30" as="geometry"/>
                </mxCell>
                <mxCell id="12" value="Jun 25th&amp;gt;6 days" style="text;html=1;align=center;verticalAlign=middle;resizable=0;points=[];autosize=1;strokeColor=none;fillColor=none;fontSize=10;" parent="1" vertex="1">
                    <mxGeometry x="275" y="485" width="100" height="30" as="geometry"/>
                </mxCell>
                <mxCell id="13" value="$30" style="text;html=1;align=center;verticalAlign=middle;resizable=0;points=[];autosize=1;strokeColor=none;fillColor=none;" parent="1" vertex="1">
                    <mxGeometry x="375" y="471" width="40" height="30" as="geometry"/>
                </mxCell>
                <mxCell id="14" value="" style="rounded=0;whiteSpace=wrap;html=1;" parent="1" vertex="1">
                    <mxGeometry x="220" y="532" width="220" height="36" as="geometry"/>
                </mxCell>
                <mxCell id="15" value="netflix" style="text;html=1;align=center;verticalAlign=middle;resizable=0;points=[];autosize=1;strokeColor=none;fillColor=none;" parent="1" vertex="1">
                    <mxGeometry x="240" y="525" width="50" height="30" as="geometry"/>
                </mxCell>
                <mxCell id="16" value="Jun 25th&amp;gt;6 days" style="text;html=1;align=center;verticalAlign=middle;resizable=0;points=[];autosize=1;strokeColor=none;fillColor=none;fontSize=10;" parent="1" vertex="1">
                    <mxGeometry x="230" y="545" width="100" height="30" as="geometry"/>
                </mxCell>
                <mxCell id="17" value="$30" style="text;html=1;align=center;verticalAlign=middle;resizable=0;points=[];autosize=1;strokeColor=none;fillColor=none;" parent="1" vertex="1">
                    <mxGeometry x="375" y="525" width="40" height="30" as="geometry"/>
                </mxCell>
                <mxCell id="18" value="Click to edit" style="text;html=1;align=center;verticalAlign=middle;resizable=0;points=[];autosize=1;strokeColor=none;fillColor=none;fontSize=10;" parent="1" vertex="1">
                    <mxGeometry x="440" y="545" width="80" height="30" as="geometry"/>
                </mxCell>
                <mxCell id="19" value="+" style="text;html=1;align=center;verticalAlign=middle;resizable=0;points=[];autosize=1;strokeColor=none;fillColor=none;fontSize=15;fontStyle=1" parent="1" vertex="1">
                    <mxGeometry x="410" y="650" width="30" height="30" as="geometry"/>
                </mxCell>
                <mxCell id="20" value="&lt;font style=&quot;font-size: 12px;&quot;&gt;Add a new subscription&lt;/font&gt;" style="text;html=1;align=center;verticalAlign=middle;resizable=0;points=[];autosize=1;strokeColor=none;fillColor=none;fontSize=15;" parent="1" vertex="1">
                    <mxGeometry x="450" y="650" width="150" height="30" as="geometry"/>
                </mxCell>
                <mxCell id="21" value="Auto paid" style="text;html=1;align=center;verticalAlign=middle;resizable=0;points=[];autosize=1;strokeColor=none;fillColor=none;fontSize=11;" parent="1" vertex="1">
                    <mxGeometry x="360" y="545" width="70" height="30" as="geometry"/>
                </mxCell>
                <mxCell id="22" value="Auto paid" style="text;html=1;align=center;verticalAlign=middle;resizable=0;points=[];autosize=1;strokeColor=none;fillColor=none;fontSize=11;" parent="1" vertex="1">
                    <mxGeometry x="360" y="485" width="70" height="30" as="geometry"/>
                </mxCell>
                <mxCell id="23" value="" style="rounded=0;whiteSpace=wrap;html=1;" parent="1" vertex="1">
                    <mxGeometry x="220" y="350" width="220" height="30" as="geometry"/>
                </mxCell>
                <mxCell id="24" value="Home" style="text;html=1;align=center;verticalAlign=middle;resizable=0;points=[];autosize=1;strokeColor=none;fillColor=none;" parent="1" vertex="1">
                    <mxGeometry x="217.5" y="350" width="60" height="30" as="geometry"/>
                </mxCell>
                <mxCell id="25" value="Monthly" style="text;html=1;align=center;verticalAlign=middle;resizable=0;points=[];autosize=1;strokeColor=none;fillColor=none;" parent="1" vertex="1">
                    <mxGeometry x="257.5" y="350" width="70" height="30" as="geometry"/>
                </mxCell>
                <mxCell id="26" value="" style="rounded=0;whiteSpace=wrap;html=1;" parent="1" vertex="1">
                    <mxGeometry x="220" y="680" width="220" height="30" as="geometry"/>
                </mxCell>
                <mxCell id="27" value="Home" style="text;html=1;align=center;verticalAlign=middle;resizable=0;points=[];autosize=1;strokeColor=none;fillColor=none;" parent="1" vertex="1">
                    <mxGeometry x="217.5" y="680" width="60" height="30" as="geometry"/>
                </mxCell>
                <mxCell id="28" value="Monthly" style="text;html=1;align=center;verticalAlign=middle;resizable=0;points=[];autosize=1;strokeColor=none;fillColor=none;" parent="1" vertex="1">
                    <mxGeometry x="265" y="680" width="70" height="30" as="geometry"/>
                </mxCell>
                <mxCell id="29" value="Tabs/pages" style="text;html=1;align=center;verticalAlign=middle;resizable=0;points=[];autosize=1;strokeColor=none;fillColor=none;" parent="1" vertex="1">
                    <mxGeometry x="137.5" y="350" width="80" height="30" as="geometry"/>
                </mxCell>
                <mxCell id="32" value="MVP.1" style="text;html=1;align=center;verticalAlign=middle;resizable=0;points=[];autosize=1;strokeColor=#82b366;fillColor=#d5e8d4;" parent="1" vertex="1">
                    <mxGeometry x="288" y="30" width="60" height="30" as="geometry"/>
                </mxCell>
                <mxCell id="33" value="" style="rounded=0;whiteSpace=wrap;html=1;" parent="1" vertex="1">
                    <mxGeometry x="820" y="30" width="810" height="1000" as="geometry"/>
                </mxCell>
                <mxCell id="34" value="MVP.2" style="text;html=1;align=center;verticalAlign=middle;resizable=0;points=[];autosize=1;strokeColor=#9673a6;fillColor=#e1d5e7;" parent="1" vertex="1">
                    <mxGeometry x="1170" y="30" width="60" height="30" as="geometry"/>
                </mxCell>
                <mxCell id="37" value="" style="rounded=0;whiteSpace=wrap;html=1;" parent="1" vertex="1">
                    <mxGeometry x="1000" y="65" width="220" height="295" as="geometry"/>
                </mxCell>
                <mxCell id="35" value="Title" style="html=1;shadow=0;dashed=0;shape=mxgraph.bootstrap.rrect;rSize=5;fillColor=none;strokeColor=#999999;align=left;spacing=15;fontSize=14;fontColor=#6C767D;" parent="1" vertex="1">
                    <mxGeometry x="1035" y="140" width="150" height="30" as="geometry"/>
                </mxCell>
                <mxCell id="38" value="Notes..." style="html=1;shadow=0;dashed=0;shape=mxgraph.bootstrap.rrect;rSize=5;fillColor=none;strokeColor=#999999;align=left;spacing=15;fontSize=14;fontColor=#6C767D;" parent="1" vertex="1">
                    <mxGeometry x="1030" y="260" width="150" height="50" as="geometry"/>
                </mxCell>
                <mxCell id="40" value="Cost" style="html=1;shadow=0;dashed=0;shape=mxgraph.bootstrap.rrect;rSize=5;fillColor=none;strokeColor=#999999;align=left;spacing=15;fontSize=14;fontColor=#6C767D;" parent="1" vertex="1">
                    <mxGeometry x="1035" y="95" width="150" height="30" as="geometry"/>
                </mxCell>
                <mxCell id="45" value="Auto paid" style="rounded=1;arcSize=10;html=1;fontSize=11;align=center;fontStyle=0;fontSize=11;sketch=0;hachureGap=4;pointerEvents=0;fontFamily=Helvetica;strokeColor=none;direction=south;" parent="1" vertex="1">
                    <mxGeometry x="1030" y="218.75" width="40" height="32.5" as="geometry"/>
                </mxCell>
                <mxCell id="48" value="" style="fillColor=#36B37E;strokeColor=none;rounded=1;arcSize=50;sketch=0;hachureGap=4;pointerEvents=0;fontFamily=Architects Daughter;fontSource=https%3A%2F%2Ffonts.googleapis.com%2Fcss%3Ffamily%3DArchitects%2BDaughter;fontSize=20;" parent="1" vertex="1">
                    <mxGeometry x="1145" y="225" width="40" height="20" as="geometry"/>
                </mxCell>
                <mxCell id="49" value="" style="shape=ellipse;strokeColor=none;fillColor=#ffffff;sketch=0;hachureGap=4;pointerEvents=0;fontFamily=Architects Daughter;fontSource=https%3A%2F%2Ffonts.googleapis.com%2Fcss%3Ffamily%3DArchitects%2BDaughter;fontSize=20;" parent="48" vertex="1">
                    <mxGeometry x="1" y="0.5" width="16" height="16" relative="1" as="geometry">
                        <mxPoint x="-17" y="-8" as="offset"/>
                    </mxGeometry>
                </mxCell>
                <mxCell id="50" value="" style="html=1;shadow=0;dashed=0;shape=mxgraph.atlassian.check;strokeColor=#ffffff;strokeWidth=2;sketch=1;hachureGap=4;pointerEvents=0;fontFamily=Architects Daughter;fontSource=https%3A%2F%2Ffonts.googleapis.com%2Fcss%3Ffamily%3DArchitects%2BDaughter;fontSize=20;" parent="48" vertex="1">
                    <mxGeometry y="0.5" width="10" height="8" relative="1" as="geometry">
                        <mxPoint x="6" y="-5" as="offset"/>
                    </mxGeometry>
                </mxCell>
                <mxCell id="53" value="" style="html=1;verticalLabelPosition=bottom;align=center;labelBackgroundColor=#ffffff;verticalAlign=top;strokeWidth=2;strokeColor=#0080F0;shadow=0;dashed=0;shape=mxgraph.ios7.icons.add;fontFamily=Helvetica;" parent="1" vertex="1">
                    <mxGeometry x="1190" y="70" width="20" height="20" as="geometry"/>
                </mxCell>
                <mxCell id="54" value="" style="html=1;verticalLabelPosition=bottom;align=center;labelBackgroundColor=#ffffff;verticalAlign=top;strokeWidth=2;strokeColor=#0080F0;shadow=0;dashed=0;shape=mxgraph.ios7.icons.back;fontFamily=Helvetica;" parent="1" vertex="1">
                    <mxGeometry x="1010" y="75" width="39" height="10" as="geometry"/>
                </mxCell>
                <mxCell id="55" value="add/save sub" style="text;html=1;strokeColor=none;fillColor=none;align=center;verticalAlign=middle;whiteSpace=wrap;rounded=0;fontFamily=Helvetica;" parent="1" vertex="1">
                    <mxGeometry x="1241" y="70" width="79" height="30" as="geometry"/>
                </mxCell>
                <mxCell id="56" value="create/edit sub" style="text;html=1;strokeColor=none;fillColor=none;align=center;verticalAlign=middle;whiteSpace=wrap;rounded=0;fontFamily=Helvetica;" parent="1" vertex="1">
                    <mxGeometry x="1030" y="35" width="90" height="30" as="geometry"/>
                </mxCell>
                <mxCell id="57" value="cancel" style="text;html=1;strokeColor=none;fillColor=none;align=center;verticalAlign=middle;whiteSpace=wrap;rounded=0;fontFamily=Helvetica;" parent="1" vertex="1">
                    <mxGeometry x="930" y="70" width="60" height="30" as="geometry"/>
                </mxCell>
                <mxCell id="59" value="" style="rounded=0;whiteSpace=wrap;html=1;" parent="1" vertex="1">
                    <mxGeometry x="985" y="400" width="220" height="290" as="geometry"/>
                </mxCell>
                <mxCell id="69" value="" style="html=1;verticalLabelPosition=bottom;align=center;labelBackgroundColor=#ffffff;verticalAlign=top;strokeWidth=2;strokeColor=#0080F0;shadow=0;dashed=0;shape=mxgraph.ios7.icons.back;fontFamily=Helvetica;" parent="1" vertex="1">
                    <mxGeometry x="1005.25" y="423" width="39" height="15" as="geometry"/>
                </mxCell>
                <mxCell id="70" value="sub details" style="text;html=1;strokeColor=none;fillColor=none;align=center;verticalAlign=middle;whiteSpace=wrap;rounded=0;fontFamily=Helvetica;" parent="1" vertex="1">
                    <mxGeometry x="1024" y="370" width="91" height="30" as="geometry"/>
                </mxCell>
                <mxCell id="72" value="go back&lt;br&gt;" style="text;html=1;align=center;verticalAlign=middle;resizable=0;points=[];autosize=1;strokeColor=none;fillColor=none;fontFamily=Helvetica;" parent="1" vertex="1">
                    <mxGeometry x="865" y="426.94" width="70" height="30" as="geometry"/>
                </mxCell>
                <mxCell id="79" value="&lt;span style=&quot;color: rgb(0, 0, 0); font-size: 12px;&quot;&gt;Mark paid&lt;/span&gt;" style="rounded=1;html=1;shadow=0;dashed=0;whiteSpace=wrap;fontSize=10;align=center;fontFamily=Helvetica;fillColor=#dae8fc;strokeColor=#6c8ebf;" parent="1" vertex="1">
                    <mxGeometry x="1037.25" y="517.12" width="105.5" height="16.88" as="geometry"/>
                </mxCell>
                <mxCell id="78" value="" style="sketch=0;html=1;aspect=fixed;shadow=0;align=center;verticalAlign=top;shape=mxgraph.gcp2.check;fontFamily=Helvetica;" parent="1" vertex="1">
                    <mxGeometry x="1043" y="518.12" width="18.75" height="15" as="geometry"/>
                </mxCell>
                <mxCell id="81" style="edgeStyle=none;html=1;entryX=1;entryY=0.5;entryDx=0;entryDy=0;fontFamily=Helvetica;" parent="1" source="80" target="79" edge="1">
                    <mxGeometry relative="1" as="geometry"/>
                </mxCell>
                <mxCell id="80" value="marks next due payment as paid" style="text;html=1;strokeColor=none;fillColor=none;align=center;verticalAlign=middle;whiteSpace=wrap;rounded=0;fontFamily=Helvetica;" parent="1" vertex="1">
                    <mxGeometry x="1230" y="401.88" width="198" height="30" as="geometry"/>
                </mxCell>
                <mxCell id="82" value="" style="html=1;verticalLabelPosition=bottom;align=center;labelBackgroundColor=#ffffff;verticalAlign=top;strokeWidth=2;strokeColor=#0080F0;shadow=0;dashed=0;shape=mxgraph.ios7.icons.compose;fontFamily=Helvetica;" parent="1" vertex="1">
                    <mxGeometry x="1142" y="411.94" width="29.099999999999998" height="29.099999999999998" as="geometry"/>
                </mxCell>
                <mxCell id="83" value="edit (reuse create page)" style="text;html=1;strokeColor=none;fillColor=none;align=center;verticalAlign=middle;whiteSpace=wrap;rounded=0;fontFamily=Helvetica;" parent="1" vertex="1">
                    <mxGeometry x="1101" y="370" width="198" height="30" as="geometry"/>
                </mxCell>
                <mxCell id="84" value="Latest payment jul 10, 2023&amp;nbsp;" style="text;html=1;strokeColor=none;fillColor=none;align=center;verticalAlign=middle;whiteSpace=wrap;rounded=0;fontFamily=Helvetica;" parent="1" vertex="1">
                    <mxGeometry x="1010" y="550" width="156" height="26" as="geometry"/>
                </mxCell>
                <mxCell id="90" value="latest payment" style="text;html=1;strokeColor=none;fillColor=none;align=center;verticalAlign=middle;whiteSpace=wrap;rounded=0;fontFamily=Helvetica;" parent="1" vertex="1">
                    <mxGeometry x="1030" y="170" width="110.5" height="25" as="geometry"/>
                </mxCell>
                <mxCell id="91" value="03/12/2023" style="html=1;shadow=0;dashed=0;shape=mxgraph.bootstrap.rrect;rSize=5;fillColor=none;strokeColor=#999999;align=left;spacing=15;fontSize=14;fontColor=#6C767D;" parent="1" vertex="1">
                    <mxGeometry x="1037.25" y="195" width="105" height="25" as="geometry"/>
                </mxCell>
                <mxCell id="97" value="" style="rounded=0;whiteSpace=wrap;html=1;" parent="1" vertex="1">
                    <mxGeometry x="1320" y="720" width="220" height="290" as="geometry"/>
                </mxCell>
                <mxCell id="98" value="startpage/subs list page" style="text;html=1;strokeColor=none;fillColor=none;align=center;verticalAlign=middle;whiteSpace=wrap;rounded=0;" parent="1" vertex="1">
                    <mxGeometry x="1360" y="680" width="140" height="30" as="geometry"/>
                </mxCell>
                <mxCell id="99" value="" style="html=1;verticalLabelPosition=bottom;align=center;labelBackgroundColor=#ffffff;verticalAlign=top;strokeWidth=2;strokeColor=#0080F0;shadow=0;dashed=0;shape=mxgraph.ios7.icons.add;" parent="1" vertex="1">
                    <mxGeometry x="1499" y="966" width="30" height="30" as="geometry"/>
                </mxCell>
                <mxCell id="100" value="add sub" style="text;html=1;align=center;verticalAlign=middle;resizable=0;points=[];autosize=1;strokeColor=none;fillColor=none;" parent="1" vertex="1">
                    <mxGeometry x="1550" y="960" width="70" height="30" as="geometry"/>
                </mxCell>
                <mxCell id="102" value="&lt;br&gt;&lt;font style=&quot;font-size: 14px;&quot;&gt;&lt;br&gt;Jul 25, 2023&lt;br&gt;15 days&lt;/font&gt;" style="text;html=1;strokeColor=none;fillColor=none;align=center;verticalAlign=middle;whiteSpace=wrap;rounded=0;fontSize=14;" parent="1" vertex="1">
                    <mxGeometry x="1025.75" y="459.88" width="113.75" height="20" as="geometry"/>
                </mxCell>
                <mxCell id="111" value="Annually - $360" style="text;html=1;strokeColor=none;fillColor=none;align=center;verticalAlign=middle;whiteSpace=wrap;rounded=0;fontSize=12;" parent="1" vertex="1">
                    <mxGeometry x="1028.5" y="586" width="114.25" height="30" as="geometry"/>
                </mxCell>
                <mxCell id="112" value="" style="verticalLabelPosition=bottom;shadow=0;dashed=0;align=center;html=1;verticalAlign=top;strokeWidth=1;shape=mxgraph.mockup.markup.line;strokeColor=#999999;fontSize=12;" parent="1" vertex="1">
                    <mxGeometry x="1008.63" y="497" width="160" height="20" as="geometry"/>
                </mxCell>
                <mxCell id="113" value="" style="verticalLabelPosition=bottom;shadow=0;dashed=0;align=center;html=1;verticalAlign=top;strokeWidth=1;shape=mxgraph.mockup.markup.line;strokeColor=#999999;fontSize=12;" parent="1" vertex="1">
                    <mxGeometry x="1010" y="533" width="160" height="20" as="geometry"/>
                </mxCell>
                <mxCell id="115" value="" style="verticalLabelPosition=bottom;shadow=0;dashed=0;align=center;html=1;verticalAlign=top;strokeWidth=1;shape=mxgraph.mockup.markup.line;strokeColor=#999999;fontSize=12;" parent="1" vertex="1">
                    <mxGeometry x="1010" y="576" width="160" height="20" as="geometry"/>
                </mxCell>
                <mxCell id="116" value="" style="verticalLabelPosition=bottom;shadow=0;dashed=0;align=center;html=1;verticalAlign=top;strokeWidth=1;shape=mxgraph.mockup.markup.line;strokeColor=#999999;fontSize=12;" parent="1" vertex="1">
                    <mxGeometry x="1012.13" y="608" width="160" height="20" as="geometry"/>
                </mxCell>
                <mxCell id="117" value="Note....&lt;br&gt;sdsfads" style="rounded=1;arcSize=10;html=1;fontSize=11;align=center;fontStyle=0;fontSize=11;sketch=0;hachureGap=4;pointerEvents=0;fontFamily=Helvetica;strokeColor=none;direction=south;" parent="1" vertex="1">
                    <mxGeometry x="1020" y="623" width="37" height="35" as="geometry"/>
                </mxCell>
                <mxCell id="125" value="Netflix" style="text;html=1;strokeColor=none;fillColor=none;align=center;verticalAlign=middle;whiteSpace=wrap;rounded=0;fontSize=14;" parent="1" vertex="1">
                    <mxGeometry x="1030.13" y="415.92" width="113.75" height="38.12" as="geometry"/>
                </mxCell>
                <mxCell id="127" value="" style="html=1;verticalLabelPosition=bottom;align=center;labelBackgroundColor=#ffffff;verticalAlign=top;strokeWidth=2;strokeColor=#0080F0;shadow=0;dashed=0;shape=mxgraph.ios7.icons.repeat;pointerEvents=1;fontSize=14;" parent="1" vertex="1">
                    <mxGeometry x="1101" y="446.84" width="22" height="20.16" as="geometry"/>
                </mxCell>
                <mxCell id="128" value="$30" style="text;html=1;strokeColor=none;fillColor=none;align=center;verticalAlign=middle;whiteSpace=wrap;rounded=0;fontSize=14;" parent="1" vertex="1">
                    <mxGeometry x="1040.0000000000002" y="441" width="61" height="30" as="geometry"/>
                </mxCell>
                <mxCell id="131" value="" style="verticalLabelPosition=bottom;shadow=0;dashed=0;align=center;html=1;verticalAlign=top;strokeWidth=1;shape=mxgraph.mockup.markup.line;strokeColor=#999999;fontSize=12;" parent="1" vertex="1">
                    <mxGeometry x="1015" y="455.88" width="160" height="20" as="geometry"/>
                </mxCell>
                <mxCell id="133" style="edgeStyle=none;html=1;entryX=0.871;entryY=-0.039;entryDx=0;entryDy=0;entryPerimeter=0;fontSize=14;" parent="1" source="132" target="127" edge="1">
                    <mxGeometry relative="1" as="geometry"/>
                </mxCell>
                <mxCell id="132" value="autopaid icon should only be displayed if its auto paid" style="text;html=1;strokeColor=none;fillColor=none;align=center;verticalAlign=middle;whiteSpace=wrap;rounded=0;fontSize=14;" parent="1" vertex="1">
                    <mxGeometry x="1270" y="479.88" width="210" height="30" as="geometry"/>
                </mxCell>
                <mxCell id="134" value="" style="verticalLabelPosition=bottom;shadow=0;dashed=0;align=center;html=1;verticalAlign=top;strokeWidth=1;shape=mxgraph.mockup.markup.line;strokeColor=#999999;fontSize=12;" parent="1" vertex="1">
                    <mxGeometry x="1008" y="435" width="160" height="20" as="geometry"/>
                </mxCell>
                <mxCell id="135" value="Delete" style="rounded=1;html=1;shadow=0;dashed=0;whiteSpace=wrap;fontSize=10;fillColor=#f8cecc;align=center;strokeColor=#b85450;" parent="1" vertex="1">
                    <mxGeometry x="1024" y="663.12" width="105.5" height="16.88" as="geometry"/>
                </mxCell>
                <mxCell id="137" style="edgeStyle=none;html=1;entryX=1;entryY=0.5;entryDx=0;entryDy=0;" parent="1" source="136" target="135" edge="1">
                    <mxGeometry relative="1" as="geometry"/>
                </mxCell>
                <mxCell id="136" value="after one click the text changes to &quot;confirm&quot;. so clicking twice should remove the sub" style="text;html=1;strokeColor=none;fillColor=none;align=center;verticalAlign=middle;whiteSpace=wrap;rounded=0;fontSize=14;" parent="1" vertex="1">
                    <mxGeometry x="1220" y="633.12" width="210" height="30" as="geometry"/>
                </mxCell>
                <mxCell id="138" value="" style="html=1;verticalLabelPosition=bottom;align=center;labelBackgroundColor=#ffffff;verticalAlign=top;strokeWidth=2;strokeColor=#0080F0;shadow=0;dashed=0;shape=mxgraph.ios7.icons.trashcan;" parent="1" vertex="1">
                    <mxGeometry x="1031.5" y="666.56" width="14" height="10" as="geometry"/>
                </mxCell>
            </root>
        </mxGraphModel>
    </diagram>
    <diagram id="lcGCt7EONm-_yOM9yhXo" name="Models">
        <mxGraphModel dx="1232" dy="625" grid="1" gridSize="10" guides="1" tooltips="1" connect="1" arrows="1" fold="1" page="1" pageScale="1" pageWidth="827" pageHeight="1169" math="0" shadow="0">
            <root>
                <mxCell id="0"/>
                <mxCell id="1" parent="0"/>
                <mxCell id="KQrOKxtoQE5sbZLWIkTP-1" value="Subscription" style="swimlane;childLayout=stackLayout;horizontal=1;startSize=50;horizontalStack=0;rounded=1;fontSize=14;fontStyle=0;strokeWidth=2;resizeParent=0;resizeLast=1;shadow=0;dashed=0;align=center;arcSize=4;whiteSpace=wrap;html=1;" parent="1" vertex="1">
                    <mxGeometry x="80" y="180" width="190" height="120" as="geometry"/>
                </mxCell>
                <mxCell id="KQrOKxtoQE5sbZLWIkTP-2" value="+IsAutoPaid: bool&lt;br&gt;+Name: string&lt;br&gt;+Description: string&lt;br&gt;+Payments: List&amp;lt;DateTime&amp;gt;" style="align=left;strokeColor=none;fillColor=none;spacingLeft=4;fontSize=12;verticalAlign=top;resizable=0;rotatable=0;part=1;html=1;" parent="KQrOKxtoQE5sbZLWIkTP-1" vertex="1">
                    <mxGeometry y="50" width="190" height="70" as="geometry"/>
                </mxCell>
            </root>
        </mxGraphModel>
    </diagram>
</mxfile>